<svg xmlns="http://www.w3.org/2000/svg" viewBox="0 0 3600 2250" width="3600" height="2250">
<defs>
  <path id="hair" d="M1249.7 933.6 C1257.2 934.4 1267.8 934.9 1274.3 935.3 C1280.7 935.7 1282.1 935.6 1288.3 936.1 C1294.5 936.6 1304.9 937.2 1311.5 938.3 C1318.1 939.3 1321.7 939.9 1328.1 942.3 C1334.4 944.8 1343.2 949.9 1349.5 953.1 C1355.8 956.3 1360.1 957.8 1366.1 961.6 C1372.2 965.3 1379.8 972.1 1385.8 975.8 C1391.8 979.4 1396.7 979.6 1402.4 983.5 C1408.1 987.4 1414.6 993.1 1420.0 999.1 C1425.3 1005.0 1431.1 1013.6 1434.5 1019.2 C1437.9 1024.7 1436.5 1027.5 1440.4 1032.3 C1444.4 1037.1 1454.1 1042.5 1458.1 1048.1 C1462.1 1053.7 1462.6 1059.8 1464.3 1065.8 C1465.9 1071.7 1466.2 1077.5 1468.0 1083.9 C1469.8 1090.3 1472.4 1097.1 1475.0 1104.2 C1477.5 1111.3 1481.2 1119.2 1483.5 1126.5 C1485.7 1133.8 1488.4 1140.6 1488.7 1147.9 C1488.9 1155.3 1485.6 1164.1 1484.9 1170.6 C1484.2 1177.1 1485.2 1180.9 1484.3 1187.0 C1483.4 1193.2 1482.5 1201.0 1479.7 1207.6 C1476.9 1214.2 1471.4 1220.2 1467.5 1226.5 C1463.5 1232.8 1460.0 1239.1 1455.8 1245.3 C1451.6 1251.5 1447.1 1257.6 1442.3 1263.5 C1437.6 1269.5 1432.5 1275.3 1427.4 1281.0 C1422.3 1286.7 1416.9 1292.2 1411.5 1297.6 C1406.2 1303.0 1400.6 1308.2 1395.1 1313.3 C1389.6 1318.3 1384.0 1323.2 1378.5 1327.8 C1373.0 1332.4 1367.5 1336.9 1362.1 1341.1 C1356.7 1345.3 1351.3 1348.5 1346.0 1353.1 C1340.8 1357.8 1335.6 1364.9 1330.5 1369.1 C1325.4 1373.2 1320.5 1377.3 1315.7 1378.0 C1310.8 1378.8 1306.1 1372.9 1301.5 1373.7 C1296.9 1374.5 1292.4 1378.7 1288.0 1382.8 C1283.5 1386.9 1279.2 1396.2 1275.0 1398.2 C1270.7 1400.1 1266.6 1396.7 1262.4 1394.7 C1258.2 1392.6 1254.1 1386.2 1250.0 1386.0 C1245.9 1385.9 1241.8 1391.6 1237.6 1393.7 C1233.4 1395.8 1229.3 1400.1 1225.0 1398.4 C1220.8 1396.8 1216.5 1387.9 1212.0 1383.7 C1207.6 1379.5 1203.1 1374.3 1198.5 1373.2 C1193.9 1372.1 1189.2 1377.8 1184.3 1377.2 C1179.5 1376.7 1174.6 1373.8 1169.5 1369.8 C1164.4 1365.7 1159.2 1357.9 1154.0 1353.1 C1148.7 1348.4 1143.3 1345.3 1137.9 1341.1 C1132.5 1336.9 1127.0 1332.4 1121.5 1327.8 C1116.0 1323.2 1110.4 1318.3 1104.9 1313.3 C1099.4 1308.2 1093.8 1303.0 1088.5 1297.6 C1083.1 1292.2 1077.7 1286.7 1072.6 1281.0 C1067.5 1275.3 1062.4 1269.5 1057.7 1263.5 C1052.9 1257.6 1048.4 1251.5 1044.2 1245.3 C1040.0 1239.1 1036.2 1232.9 1032.5 1226.5 C1028.9 1220.1 1025.0 1213.1 1022.1 1207.1 C1019.2 1201.1 1016.9 1196.5 1015.2 1190.5 C1013.5 1184.4 1012.6 1178.8 1012.0 1170.8 C1011.3 1162.8 1010.4 1150.4 1011.4 1142.5 C1012.4 1134.7 1016.2 1130.3 1018.0 1123.7 C1019.8 1117.1 1019.9 1108.9 1022.1 1102.9 C1024.3 1096.9 1028.3 1093.0 1030.9 1087.6 C1033.5 1082.3 1034.5 1076.9 1037.6 1070.7 C1040.7 1064.5 1046.1 1057.6 1049.6 1050.4 C1053.0 1043.3 1055.7 1033.6 1058.4 1027.7 C1061.1 1021.7 1060.9 1019.6 1065.6 1014.7 C1070.4 1009.9 1081.3 1004.0 1086.9 998.6 C1092.4 993.2 1094.3 985.9 1098.8 982.3 C1103.4 978.7 1108.3 979.7 1114.0 976.9 C1119.6 974.1 1127.3 969.6 1132.7 965.2 C1138.1 960.9 1140.7 953.6 1146.4 950.7 C1152.0 947.8 1160.2 949.3 1166.7 947.9 C1173.3 946.5 1179.0 944.2 1185.7 942.5 C1192.5 940.8 1199.9 939.6 1207.2 937.6 C1214.5 935.6 1222.5 931.2 1229.6 930.5 C1236.6 929.8 1242.3 932.8 1249.7 933.6 Z"/>
  <path id="body" d="M1250.0 1452.0 C1293.3 1452.0 1335.0 1454.0 1380.0 1462.0 C1425.0 1470.0 1473.3 1485.7 1520.0 1500.0 C1566.7 1514.3 1620.0 1531.3 1660.0 1548.0 C1700.0 1564.7 1734.7 1578.0 1760.0 1600.0 C1785.3 1622.0 1799.3 1643.3 1812.0 1680.0 C1824.7 1716.7 1829.3 1766.7 1836.0 1820.0 C1842.7 1873.3 1847.0 1928.3 1852.0 2000.0 C1857.0 2071.7 2069.0 2208.3 1866.0 2250.0 C1663.0 2291.7 837.0 2291.7 634.0 2250.0 C431.0 2208.3 643.0 2071.7 648.0 2000.0 C653.0 1928.3 657.3 1873.3 664.0 1820.0 C670.7 1766.7 675.3 1716.7 688.0 1680.0 C700.7 1643.3 714.7 1622.0 740.0 1600.0 C765.3 1578.0 800.0 1564.7 840.0 1548.0 C880.0 1531.3 933.3 1514.3 980.0 1500.0 C1026.7 1485.7 1075.0 1470.0 1120.0 1462.0 C1165.0 1454.0 1206.7 1452.0 1250.0 1452.0 Z"/>
  <path id="chair" d="M872 1834 C872 1786 912 1760 974 1756 C1076 1750 1160 1748 1250 1748 C1340 1748 1424 1750 1526 1756 C1588 1760 1628 1786 1628 1834 L1644 2250 L856 2250 Z"/>
  <path id="neck" d="M1146.0 1330.0 C1182.7 1315.0 1317.3 1315.0 1354.0 1330.0 C1390.7 1345.0 1359.7 1395.3 1366.0 1420.0 C1372.3 1444.7 1411.3 1466.3 1392.0 1478.0 C1372.7 1489.7 1297.3 1490.0 1250.0 1490.0 C1202.7 1490.0 1127.3 1489.7 1108.0 1478.0 C1088.7 1466.3 1127.7 1444.7 1134.0 1420.0 C1140.3 1395.3 1109.3 1345.0 1146.0 1330.0 Z"/>
  <clipPath id="clip-hair"><use href="#hair"/></clipPath>
  <clipPath id="clip-body"><use href="#body"/></clipPath>
  <clipPath id="clip-chair"><use href="#chair"/></clipPath>
  <clipPath id="clip-neck"><use href="#neck"/></clipPath>
  <filter id="blur3" x="-20%" y="-20%" width="140%" height="140%"><feGaussianBlur stdDeviation="3"/></filter>
  <filter id="blur8" x="-20%" y="-20%" width="140%" height="140%"><feGaussianBlur stdDeviation="8"/></filter>
  <filter id="blur14" x="-20%" y="-20%" width="140%" height="140%"><feGaussianBlur stdDeviation="14"/></filter>
  <filter id="blur30" x="-50%" y="-50%" width="200%" height="200%"><feGaussianBlur stdDeviation="30"/></filter>
  <linearGradient id="topLit" x1="0" y1="0" x2="0" y2="1">
    <stop offset="0" stop-color="#fff"/>
    <stop offset="0.5" stop-color="#fff" stop-opacity="0.5"/>
    <stop offset="1" stop-color="#fff" stop-opacity="0"/>
  </linearGradient>
  <linearGradient id="rightLit" x1="0" y1="0" x2="1" y2="0">
    <stop offset="0.55" stop-color="#fff" stop-opacity="0"/>
    <stop offset="1" stop-color="#fff"/>
  </linearGradient>
  <mask id="maskHair" maskUnits="userSpaceOnUse" x="0" y="900" width="3600" height="460"><rect x="0" y="900" width="3600" height="460" fill="url(#topLit)"/></mask>
  <mask id="maskBody" maskUnits="userSpaceOnUse" x="0" y="1440" width="3600" height="380"><rect x="0" y="1440" width="3600" height="380" fill="url(#topLit)"/></mask>
  <mask id="maskRight" maskUnits="userSpaceOnUse" x="600" y="1440" width="1300" height="810"><rect x="600" y="1440" width="1300" height="810" fill="url(#rightLit)"/></mask>
  <mask id="maskChair" maskUnits="userSpaceOnUse" x="0" y="1740" width="3600" height="160"><rect x="0" y="1740" width="3600" height="160" fill="url(#topLit)"/></mask>
  <radialGradient id="hairShade" cx="0.5" cy="0.25" r="0.8">
    <stop offset="0" stop-color="#15161c"/>
    <stop offset="1" stop-color="#07080b"/>
  </radialGradient>
  <linearGradient id="bodyShade" x1="0" y1="0" x2="0" y2="1">
    <stop offset="0" stop-color="#141821"/>
    <stop offset="0.4" stop-color="#0c0f15"/>
    <stop offset="1" stop-color="#05060a"/>
  </linearGradient>
  <linearGradient id="neckShade" x1="0" y1="0" x2="1" y2="0">
    <stop offset="0" stop-color="#2a1d17"/>
    <stop offset="0.5" stop-color="#140e0c"/>
    <stop offset="1" stop-color="#2e1f18"/>
  </linearGradient>
  <linearGradient id="chairShade" x1="0" y1="0" x2="0" y2="1">
    <stop offset="0" stop-color="#171b24"/>
    <stop offset="1" stop-color="#07080c"/>
  </linearGradient>
  <linearGradient id="fadeBottom" x1="0" y1="0" x2="0" y2="1">
    <stop offset="0" stop-color="#07090e" stop-opacity="0"/>
    <stop offset="1" stop-color="#07090e" stop-opacity="1"/>
  </linearGradient>
</defs>
<!-- Luz de la pantalla que se derrama alrededor de la cabeza -->
<ellipse cx="1250" cy="1120" rx="360" ry="320" fill="#fff4e2" opacity="0.12" filter="url(#blur30)"/>
<use href="#body" fill="url(#bodyShade)"/>
<g clip-path="url(#clip-body)" mask="url(#maskBody)"><use href="#body" fill="none" stroke="#fff4e2" stroke-width="18" stroke-opacity="0.6" filter="url(#blur8)"/></g>
<g clip-path="url(#clip-body)" mask="url(#maskRight)"><use href="#body" fill="none" stroke="#ffb877" stroke-width="22" stroke-opacity="0.35" filter="url(#blur14)"/></g>
<path d="M818 1720 C846 1860 860 2040 864 2250" fill="none" stroke="#000" stroke-opacity="0.45" stroke-width="18" filter="url(#blur8)"/>
<path d="M1682 1720 C1654 1860 1640 2040 1636 2250" fill="none" stroke="#000" stroke-opacity="0.45" stroke-width="18" filter="url(#blur8)"/>
<path d="M1250 1520 C1246 1640 1252 1720 1250 1760" fill="none" stroke="#000" stroke-opacity="0.35" stroke-width="10" filter="url(#blur8)"/>
<use href="#neck" fill="url(#neckShade)"/>
<g clip-path="url(#clip-neck)" mask="url(#maskBody)"><use href="#neck" fill="none" stroke="#fff4e2" stroke-width="10" stroke-opacity="0.45" filter="url(#blur3)"/></g>
<path d="M1104 1470 C1150 1446 1350 1446 1396 1470 C1404 1492 1396 1510 1380 1516 C1330 1500 1170 1500 1120 1516 C1104 1510 1096 1492 1104 1470 Z" fill="#1a1e28"/>
<path d="M1104 1470 C1150 1446 1350 1446 1396 1470" fill="none" stroke="#fff4e2" stroke-opacity="0.35" stroke-width="3"/>
<path d="M1030 1188 C1004 1186 994 1214 998 1246 C1002 1278 1018 1302 1042 1298 Z" fill="#2a1a14"/>
<path d="M1470 1188 C1496 1186 1506 1214 1502 1246 C1498 1278 1482 1302 1458 1298 Z" fill="#2a1a14"/>
<path d="M1000 1236 C1002 1270 1016 1292 1036 1296" fill="none" stroke="#ff9a6a" stroke-opacity="0.6" stroke-width="6" filter="url(#blur3)"/>
<path d="M1500 1236 C1498 1270 1484 1292 1464 1296" fill="none" stroke="#ff9a6a" stroke-opacity="0.6" stroke-width="6" filter="url(#blur3)"/>
<use href="#hair" fill="url(#hairShade)"/>
<g clip-path="url(#clip-hair)"><path d="M1451 1070 Q1502 1094 1508 1154" fill="none" stroke="#fff4e2" stroke-opacity="0.04" stroke-width="1.9" stroke-linecap="round"/><path d="M1151 966 Q1109 1045 1090 1159" fill="none" stroke="#fff4e2" stroke-opacity="0.08" stroke-width="1.7" stroke-linecap="round"/><path d="M1316 954 Q1342 1028 1358 1133" fill="none" stroke="#fff4e2" stroke-opacity="0.04" stroke-width="1.2" stroke-linecap="round"/><path d="M1103 996 Q1051 1091 1016 1205" fill="none" stroke="#fff4e2" stroke-opacity="0.06" stroke-width="1.7" stroke-linecap="round"/><path d="M1212 969 Q1199 1014 1192 1067" fill="none" stroke="#fff4e2" stroke-opacity="0.07" stroke-width="1.3" stroke-linecap="round"/><path d="M1389 995 Q1426 1071 1441 1158" fill="none" stroke="#fff4e2" stroke-opacity="0.07" stroke-width="1.3" stroke-linecap="round"/><path d="M1323 994 Q1349 1070 1357 1167" fill="none" stroke="#fff4e2" stroke-opacity="0.04" stroke-width="1.1" stroke-linecap="round"/><path d="M1070 1038 Q1000 1115 959 1204" fill="none" stroke="#fff4e2" stroke-opacity="0.06" stroke-width="2.1" stroke-linecap="round"/><path d="M1140 972 Q1102 1027 1090 1108" fill="none" stroke="#fff4e2" stroke-opacity="0.05" stroke-width="1.2" stroke-linecap="round"/><path d="M1055 1047 Q998 1124 963 1224" fill="none" stroke="#fff4e2" stroke-opacity="0.03" stroke-width="1.6" stroke-linecap="round"/><path d="M1179 953 Q1157 1054 1148 1162" fill="none" stroke="#fff4e2" stroke-opacity="0.06" stroke-width="1.5" stroke-linecap="round"/><path d="M1319 952 Q1336 988 1344 1039" fill="none" stroke="#fff4e2" stroke-opacity="0.04" stroke-width="1.1" stroke-linecap="round"/><path d="M1331 1006 Q1351 1068 1356 1139" fill="none" stroke="#fff4e2" stroke-opacity="0.05" stroke-width="1.8" stroke-linecap="round"/><path d="M1220 947 Q1201 1020 1189 1126" fill="none" stroke="#fff4e2" stroke-opacity="0.03" stroke-width="1.6" stroke-linecap="round"/><path d="M1245 947 Q1246 1029 1249 1121" fill="none" stroke="#fff4e2" stroke-opacity="0.08" stroke-width="2.0" stroke-linecap="round"/><path d="M1239 944 Q1235 987 1235 1056" fill="none" stroke="#fff4e2" stroke-opacity="0.06" stroke-width="2.2" stroke-linecap="round"/><path d="M1054 1080 Q1015 1127 1003 1176" fill="none" stroke="#fff4e2" stroke-opacity="0.06" stroke-width="1.9" stroke-linecap="round"/><path d="M1185 984 Q1158 1070 1140 1191" fill="none" stroke="#fff4e2" stroke-opacity="0.05" stroke-width="1.0" stroke-linecap="round"/><path d="M1074 1055 Q1024 1130 994 1236" fill="none" stroke="#fff4e2" stroke-opacity="0.07" stroke-width="1.1" stroke-linecap="round"/><path d="M1199 979 Q1183 1011 1175 1073" fill="none" stroke="#fff4e2" stroke-opacity="0.08" stroke-width="1.4" stroke-linecap="round"/><path d="M1426 1059 Q1499 1127 1528 1218" fill="none" stroke="#fff4e2" stroke-opacity="0.08" stroke-width="1.7" stroke-linecap="round"/><path d="M1120 1004 Q1083 1064 1066 1142" fill="none" stroke="#fff4e2" stroke-opacity="0.06" stroke-width="1.3" stroke-linecap="round"/><path d="M1154 984 Q1123 1059 1112 1140" fill="none" stroke="#fff4e2" stroke-opacity="0.06" stroke-width="1.3" stroke-linecap="round"/><path d="M1366 1006 Q1407 1072 1433 1171" fill="none" stroke="#fff4e2" stroke-opacity="0.06" stroke-width="1.5" stroke-linecap="round"/><path d="M1160 976 Q1129 1075 1112 1201" fill="none" stroke="#fff4e2" stroke-opacity="0.04" stroke-width="1.5" stroke-linecap="round"/><path d="M1189 961 Q1161 1064 1145 1175" fill="none" stroke="#fff4e2" stroke-opacity="0.04" stroke-width="1.9" stroke-linecap="round"/><path d="M1316 983 Q1343 1084 1361 1187" fill="none" stroke="#fff4e2" stroke-opacity="0.05" stroke-width="1.0" stroke-linecap="round"/><path d="M1449 1074 Q1542 1175 1591 1285" fill="none" stroke="#fff4e2" stroke-opacity="0.05" stroke-width="1.1" stroke-linecap="round"/><path d="M1377 1014 Q1412 1077 1430 1158" fill="none" stroke="#fff4e2" stroke-opacity="0.07" stroke-width="2.1" stroke-linecap="round"/><path d="M1400 1038 Q1442 1095 1464 1187" fill="none" stroke="#fff4e2" stroke-opacity="0.04" stroke-width="1.2" stroke-linecap="round"/><path d="M1156 1007 Q1131 1063 1128 1151" fill="none" stroke="#fff4e2" stroke-opacity="0.05" stroke-width="1.2" stroke-linecap="round"/><path d="M1367 988 Q1407 1099 1427 1224" fill="none" stroke="#fff4e2" stroke-opacity="0.06" stroke-width="1.3" stroke-linecap="round"/><path d="M1044 1079 Q1002 1103 991 1155" fill="none" stroke="#fff4e2" stroke-opacity="0.05" stroke-width="1.8" stroke-linecap="round"/><path d="M1304 953 Q1314 1050 1314 1157" fill="none" stroke="#fff4e2" stroke-opacity="0.04" stroke-width="2.0" stroke-linecap="round"/><path d="M1426 1028 Q1484 1109 1518 1191" fill="none" stroke="#fff4e2" stroke-opacity="0.05" stroke-width="1.8" stroke-linecap="round"/><path d="M1294 969 Q1300 1024 1299 1095" fill="none" stroke="#fff4e2" stroke-opacity="0.05" stroke-width="2.1" stroke-linecap="round"/><path d="M1085 1059 Q1016 1150 968 1263" fill="none" stroke="#fff4e2" stroke-opacity="0.05" stroke-width="1.0" stroke-linecap="round"/><path d="M1377 1019 Q1422 1107 1445 1230" fill="none" stroke="#fff4e2" stroke-opacity="0.03" stroke-width="1.5" stroke-linecap="round"/><path d="M1133 1002 Q1091 1107 1071 1227" fill="none" stroke="#fff4e2" stroke-opacity="0.07" stroke-width="1.1" stroke-linecap="round"/><path d="M1147 1002 Q1103 1117 1070 1249" fill="none" stroke="#fff4e2" stroke-opacity="0.04" stroke-width="1.0" stroke-linecap="round"/><path d="M1075 1019 Q1020 1084 994 1161" fill="none" stroke="#fff4e2" stroke-opacity="0.07" stroke-width="1.6" stroke-linecap="round"/><path d="M1457 1068 Q1520 1125 1553 1214" fill="none" stroke="#fff4e2" stroke-opacity="0.04" stroke-width="2.1" stroke-linecap="round"/><path d="M1189 963 Q1171 1053 1161 1147" fill="none" stroke="#fff4e2" stroke-opacity="0.08" stroke-width="1.4" stroke-linecap="round"/><path d="M1084 1041 Q1040 1091 1020 1171" fill="none" stroke="#fff4e2" stroke-opacity="0.05" stroke-width="1.5" stroke-linecap="round"/><path d="M1446 1061 Q1496 1100 1506 1163" fill="none" stroke="#fff4e2" stroke-opacity="0.05" stroke-width="1.5" stroke-linecap="round"/><path d="M1135 1010 Q1089 1106 1060 1229" fill="none" stroke="#fff4e2" stroke-opacity="0.03" stroke-width="1.3" stroke-linecap="round"/><path d="M1448 1082 Q1513 1151 1546 1227" fill="none" stroke="#8a8f9c" stroke-opacity="0.02" stroke-width="1.8" stroke-linecap="round"/><path d="M1333 966 Q1356 1017 1363 1075" fill="none" stroke="#fff4e2" stroke-opacity="0.06" stroke-width="1.4" stroke-linecap="round"/><path d="M1272 945 Q1279 1036 1283 1139" fill="none" stroke="#fff4e2" stroke-opacity="0.06" stroke-width="1.7" stroke-linecap="round"/><path d="M1300 985 Q1314 1033 1320 1111" fill="none" stroke="#fff4e2" stroke-opacity="0.06" stroke-width="1.9" stroke-linecap="round"/><path d="M1192 968 Q1178 1081 1176 1198" fill="none" stroke="#fff4e2" stroke-opacity="0.06" stroke-width="1.0" stroke-linecap="round"/><path d="M1437 1082 Q1495 1136 1510 1196" fill="none" stroke="#8a8f9c" stroke-opacity="0.03" stroke-width="1.6" stroke-linecap="round"/><path d="M1042 1111 Q956 1197 912 1302" fill="none" stroke="#8a8f9c" stroke-opacity="0.03" stroke-width="1.2" stroke-linecap="round"/><path d="M1421 1029 Q1457 1096 1476 1165" fill="none" stroke="#fff4e2" stroke-opacity="0.06" stroke-width="1.1" stroke-linecap="round"/><path d="M1104 1003 Q1032 1098 995 1224" fill="none" stroke="#fff4e2" stroke-opacity="0.08" stroke-width="1.5" stroke-linecap="round"/><path d="M1377 989 Q1440 1088 1476 1194" fill="none" stroke="#fff4e2" stroke-opacity="0.03" stroke-width="2.1" stroke-linecap="round"/><path d="M1272 971 Q1283 1020 1288 1085" fill="none" stroke="#fff4e2" stroke-opacity="0.07" stroke-width="1.5" stroke-linecap="round"/><path d="M1120 1029 Q1061 1124 1033 1227" fill="none" stroke="#fff4e2" stroke-opacity="0.06" stroke-width="1.5" stroke-linecap="round"/><path d="M1131 980 Q1103 1045 1095 1128" fill="none" stroke="#fff4e2" stroke-opacity="0.03" stroke-width="1.9" stroke-linecap="round"/><path d="M1355 1010 Q1380 1057 1388 1131" fill="none" stroke="#fff4e2" stroke-opacity="0.06" stroke-width="1.5" stroke-linecap="round"/><path d="M1261 945 Q1271 1015 1281 1114" fill="none" stroke="#fff4e2" stroke-opacity="0.04" stroke-width="1.9" stroke-linecap="round"/><path d="M1187 990 Q1163 1048 1151 1122" fill="none" stroke="#fff4e2" stroke-opacity="0.05" stroke-width="1.7" stroke-linecap="round"/><path d="M1129 994 Q1072 1081 1031 1198" fill="none" stroke="#fff4e2" stroke-opacity="0.06" stroke-width="1.7" stroke-linecap="round"/><path d="M1304 949 Q1325 1003 1333 1086" fill="none" stroke="#fff4e2" stroke-opacity="0.06" stroke-width="2.0" stroke-linecap="round"/><path d="M1223 975 Q1223 1029 1225 1097" fill="none" stroke="#fff4e2" stroke-opacity="0.06" stroke-width="1.2" stroke-linecap="round"/><path d="M1130 1017 Q1103 1061 1089 1125" fill="none" stroke="#fff4e2" stroke-opacity="0.04" stroke-width="1.6" stroke-linecap="round"/><path d="M1266 961 Q1272 1060 1277 1193" fill="none" stroke="#fff4e2" stroke-opacity="0.04" stroke-width="1.0" stroke-linecap="round"/><path d="M1365 998 Q1398 1052 1406 1118" fill="none" stroke="#fff4e2" stroke-opacity="0.07" stroke-width="1.3" stroke-linecap="round"/><path d="M1281 974 Q1288 1048 1292 1146" fill="none" stroke="#fff4e2" stroke-opacity="0.06" stroke-width="1.2" stroke-linecap="round"/><path d="M1272 978 Q1272 1093 1267 1211" fill="none" stroke="#fff4e2" stroke-opacity="0.04" stroke-width="1.1" stroke-linecap="round"/><path d="M1144 966 Q1117 1021 1104 1093" fill="none" stroke="#fff4e2" stroke-opacity="0.05" stroke-width="1.9" stroke-linecap="round"/><path d="M1346 963 Q1362 1005 1365 1052" fill="none" stroke="#fff4e2" stroke-opacity="0.06" stroke-width="1.9" stroke-linecap="round"/><path d="M1463 1082 Q1532 1162 1568 1274" fill="none" stroke="#8a8f9c" stroke-opacity="0.02" stroke-width="1.4" stroke-linecap="round"/><path d="M1066 1077 Q1011 1135 985 1221" fill="none" stroke="#fff4e2" stroke-opacity="0.07" stroke-width="1.6" stroke-linecap="round"/><path d="M1112 1004 Q1074 1069 1063 1155" fill="none" stroke="#fff4e2" stroke-opacity="0.05" stroke-width="1.7" stroke-linecap="round"/><path d="M1140 994 Q1120 1029 1117 1095" fill="none" stroke="#fff4e2" stroke-opacity="0.08" stroke-width="1.0" stroke-linecap="round"/><path d="M1305 978 Q1327 1055 1343 1143" fill="none" stroke="#fff4e2" stroke-opacity="0.07" stroke-width="1.9" stroke-linecap="round"/><path d="M1123 1009 Q1085 1097 1059 1200" fill="none" stroke="#fff4e2" stroke-opacity="0.05" stroke-width="1.7" stroke-linecap="round"/><path d="M1180 954 Q1161 1017 1157 1091" fill="none" stroke="#fff4e2" stroke-opacity="0.06" stroke-width="2.0" stroke-linecap="round"/><path d="M1085 1045 Q1012 1137 953 1256" fill="none" stroke="#fff4e2" stroke-opacity="0.05" stroke-width="1.2" stroke-linecap="round"/><path d="M1205 968 Q1193 1018 1189 1078" fill="none" stroke="#fff4e2" stroke-opacity="0.08" stroke-width="1.5" stroke-linecap="round"/><path d="M1222 950 Q1221 1008 1225 1095" fill="none" stroke="#fff4e2" stroke-opacity="0.05" stroke-width="1.9" stroke-linecap="round"/><path d="M1155 962 Q1114 1036 1096 1118" fill="none" stroke="#fff4e2" stroke-opacity="0.05" stroke-width="1.9" stroke-linecap="round"/><path d="M1154 965 Q1121 1027 1111 1122" fill="none" stroke="#fff4e2" stroke-opacity="0.04" stroke-width="1.7" stroke-linecap="round"/><path d="M1214 941 Q1198 1052 1186 1185" fill="none" stroke="#fff4e2" stroke-opacity="0.07" stroke-width="1.1" stroke-linecap="round"/><path d="M1432 1028 Q1488 1116 1528 1217" fill="none" stroke="#fff4e2" stroke-opacity="0.04" stroke-width="1.6" stroke-linecap="round"/><path d="M1042 1069 Q1000 1107 980 1152" fill="none" stroke="#fff4e2" stroke-opacity="0.06" stroke-width="1.2" stroke-linecap="round"/><path d="M1388 1004 Q1425 1065 1431 1128" fill="none" stroke="#fff4e2" stroke-opacity="0.07" stroke-width="1.1" stroke-linecap="round"/><path d="M1441 1056 Q1514 1156 1566 1257" fill="none" stroke="#fff4e2" stroke-opacity="0.06" stroke-width="1.7" stroke-linecap="round"/><path d="M1345 972 Q1369 1025 1377 1089" fill="none" stroke="#fff4e2" stroke-opacity="0.06" stroke-width="1.4" stroke-linecap="round"/><path d="M1153 993 Q1105 1095 1074 1205" fill="none" stroke="#fff4e2" stroke-opacity="0.04" stroke-width="1.6" stroke-linecap="round"/><path d="M1252 976 Q1250 1051 1248 1136" fill="none" stroke="#fff4e2" stroke-opacity="0.08" stroke-width="2.1" stroke-linecap="round"/><path d="M1461 1119 Q1540 1213 1579 1314" fill="none" stroke="#8a8f9c" stroke-opacity="0.03" stroke-width="1.8" stroke-linecap="round"/><path d="M1383 1008 Q1424 1117 1450 1236" fill="none" stroke="#fff4e2" stroke-opacity="0.06" stroke-width="1.2" stroke-linecap="round"/><path d="M1234 977 Q1220 1068 1208 1177" fill="none" stroke="#fff4e2" stroke-opacity="0.06" stroke-width="1.8" stroke-linecap="round"/><path d="M1054 1052 Q1004 1115 985 1192" fill="none" stroke="#fff4e2" stroke-opacity="0.06" stroke-width="1.9" stroke-linecap="round"/><path d="M1315 968 Q1336 1038 1349 1142" fill="none" stroke="#fff4e2" stroke-opacity="0.08" stroke-width="1.9" stroke-linecap="round"/><path d="M1462 1094 Q1525 1133 1543 1197" fill="none" stroke="#8a8f9c" stroke-opacity="0.03" stroke-width="2.0" stroke-linecap="round"/><path d="M1413 1016 Q1467 1084 1498 1165" fill="none" stroke="#fff4e2" stroke-opacity="0.07" stroke-width="2.0" stroke-linecap="round"/><path d="M1398 1026 Q1431 1077 1438 1135" fill="none" stroke="#fff4e2" stroke-opacity="0.05" stroke-width="1.1" stroke-linecap="round"/><path d="M1102 1029 Q1038 1118 994 1237" fill="none" stroke="#fff4e2" stroke-opacity="0.05" stroke-width="1.3" stroke-linecap="round"/><path d="M1205 941 Q1192 1002 1183 1094" fill="none" stroke="#fff4e2" stroke-opacity="0.05" stroke-width="1.0" stroke-linecap="round"/><path d="M1448 1056 Q1481 1085 1493 1139" fill="none" stroke="#fff4e2" stroke-opacity="0.06" stroke-width="1.6" stroke-linecap="round"/><path d="M1141 979 Q1111 1038 1109 1129" fill="none" stroke="#fff4e2" stroke-opacity="0.04" stroke-width="2.0" stroke-linecap="round"/><path d="M1044 1097 Q975 1173 942 1278" fill="none" stroke="#8a8f9c" stroke-opacity="0.02" stroke-width="1.6" stroke-linecap="round"/><path d="M1149 981 Q1104 1066 1078 1179" fill="none" stroke="#fff4e2" stroke-opacity="0.06" stroke-width="1.7" stroke-linecap="round"/><path d="M1431 1067 Q1490 1123 1504 1192" fill="none" stroke="#fff4e2" stroke-opacity="0.04" stroke-width="1.4" stroke-linecap="round"/><path d="M1339 1005 Q1378 1089 1395 1200" fill="none" stroke="#fff4e2" stroke-opacity="0.05" stroke-width="1.6" stroke-linecap="round"/><path d="M1362 982 Q1396 1072 1407 1172" fill="none" stroke="#fff4e2" stroke-opacity="0.06" stroke-width="2.1" stroke-linecap="round"/><path d="M1090 1006 Q1038 1054 1026 1138" fill="none" stroke="#fff4e2" stroke-opacity="0.05" stroke-width="2.0" stroke-linecap="round"/><path d="M1307 953 Q1325 1002 1337 1068" fill="none" stroke="#fff4e2" stroke-opacity="0.03" stroke-width="1.6" stroke-linecap="round"/><path d="M1212 992 Q1194 1098 1183 1225" fill="none" stroke="#fff4e2" stroke-opacity="0.04" stroke-width="1.4" stroke-linecap="round"/><path d="M1246 958 Q1248 1035 1250 1134" fill="none" stroke="#fff4e2" stroke-opacity="0.08" stroke-width="1.2" stroke-linecap="round"/><path d="M1179 948 Q1160 980 1152 1043" fill="none" stroke="#fff4e2" stroke-opacity="0.06" stroke-width="2.2" stroke-linecap="round"/><path d="M1395 1019 Q1425 1056 1433 1102" fill="none" stroke="#fff4e2" stroke-opacity="0.06" stroke-width="1.1" stroke-linecap="round"/><path d="M1268 958 Q1273 1024 1276 1116" fill="none" stroke="#fff4e2" stroke-opacity="0.07" stroke-width="1.7" stroke-linecap="round"/><path d="M1085 1037 Q1019 1156 988 1276" fill="none" stroke="#fff4e2" stroke-opacity="0.07" stroke-width="1.8" stroke-linecap="round"/><path d="M1154 1008 Q1124 1116 1105 1245" fill="none" stroke="#fff4e2" stroke-opacity="0.05" stroke-width="1.4" stroke-linecap="round"/><path d="M1362 999 Q1401 1076 1413 1174" fill="none" stroke="#fff4e2" stroke-opacity="0.08" stroke-width="1.7" stroke-linecap="round"/><path d="M1462 1069 Q1535 1128 1563 1222" fill="none" stroke="#fff4e2" stroke-opacity="0.06" stroke-width="1.6" stroke-linecap="round"/><path d="M1308 973 Q1336 1090 1359 1219" fill="none" stroke="#fff4e2" stroke-opacity="0.07" stroke-width="1.1" stroke-linecap="round"/><path d="M1375 973 Q1425 1071 1459 1183" fill="none" stroke="#fff4e2" stroke-opacity="0.04" stroke-width="1.8" stroke-linecap="round"/><path d="M1262 970 Q1264 1051 1262 1160" fill="none" stroke="#fff4e2" stroke-opacity="0.08" stroke-width="1.3" stroke-linecap="round"/><path d="M1257 958 Q1256 1061 1254 1184" fill="none" stroke="#fff4e2" stroke-opacity="0.07" stroke-width="2.1" stroke-linecap="round"/><path d="M1043 1074 Q963 1163 906 1282" fill="none" stroke="#fff4e2" stroke-opacity="0.05" stroke-width="1.7" stroke-linecap="round"/><path d="M1434 1028 Q1471 1074 1488 1131" fill="none" stroke="#fff4e2" stroke-opacity="0.07" stroke-width="1.7" stroke-linecap="round"/><path d="M1087 1046 Q1044 1082 1037 1149" fill="none" stroke="#fff4e2" stroke-opacity="0.04" stroke-width="2.1" stroke-linecap="round"/><path d="M1383 990 Q1430 1103 1447 1219" fill="none" stroke="#fff4e2" stroke-opacity="0.07" stroke-width="1.9" stroke-linecap="round"/><path d="M1308 990 Q1333 1044 1345 1130" fill="none" stroke="#fff4e2" stroke-opacity="0.05" stroke-width="1.8" stroke-linecap="round"/><path d="M1329 997 Q1350 1054 1361 1130" fill="none" stroke="#fff4e2" stroke-opacity="0.04" stroke-width="2.0" stroke-linecap="round"/><path d="M1417 1019 Q1476 1094 1517 1197" fill="none" stroke="#fff4e2" stroke-opacity="0.07" stroke-width="1.4" stroke-linecap="round"/><path d="M1077 1027 Q1023 1101 1007 1181" fill="none" stroke="#fff4e2" stroke-opacity="0.04" stroke-width="1.4" stroke-linecap="round"/><path d="M1413 1011 Q1461 1100 1492 1214" fill="none" stroke="#fff4e2" stroke-opacity="0.03" stroke-width="1.3" stroke-linecap="round"/><path d="M1320 996 Q1338 1071 1350 1159" fill="none" stroke="#fff4e2" stroke-opacity="0.04" stroke-width="1.9" stroke-linecap="round"/><path d="M1342 999 Q1374 1093 1397 1200" fill="none" stroke="#fff4e2" stroke-opacity="0.04" stroke-width="1.3" stroke-linecap="round"/><path d="M1353 972 Q1382 1027 1387 1105" fill="none" stroke="#fff4e2" stroke-opacity="0.05" stroke-width="1.5" stroke-linecap="round"/><path d="M1431 1074 Q1497 1151 1520 1237" fill="none" stroke="#fff4e2" stroke-opacity="0.04" stroke-width="1.1" stroke-linecap="round"/><path d="M1251 979 Q1245 1052 1239 1142" fill="none" stroke="#fff4e2" stroke-opacity="0.05" stroke-width="2.0" stroke-linecap="round"/><path d="M1419 1028 Q1474 1103 1495 1211" fill="none" stroke="#fff4e2" stroke-opacity="0.06" stroke-width="1.4" stroke-linecap="round"/><path d="M1256 952 Q1258 1021 1258 1122" fill="none" stroke="#fff4e2" stroke-opacity="0.08" stroke-width="1.6" stroke-linecap="round"/><path d="M1450 1054 Q1533 1126 1570 1212" fill="none" stroke="#fff4e2" stroke-opacity="0.08" stroke-width="1.0" stroke-linecap="round"/><path d="M1400 1035 Q1453 1128 1488 1249" fill="none" stroke="#fff4e2" stroke-opacity="0.05" stroke-width="1.5" stroke-linecap="round"/><path d="M1120 1020 Q1087 1066 1087 1120" fill="none" stroke="#fff4e2" stroke-opacity="0.05" stroke-width="1.5" stroke-linecap="round"/><path d="M1283 988 Q1304 1083 1319 1182" fill="none" stroke="#fff4e2" stroke-opacity="0.03" stroke-width="1.6" stroke-linecap="round"/><path d="M1286 964 Q1304 1035 1318 1121" fill="none" stroke="#fff4e2" stroke-opacity="0.04" stroke-width="2.1" stroke-linecap="round"/><path d="M1289 970 Q1298 1027 1302 1102" fill="none" stroke="#fff4e2" stroke-opacity="0.05" stroke-width="2.2" stroke-linecap="round"/><path d="M1277 949 Q1278 994 1275 1066" fill="none" stroke="#fff4e2" stroke-opacity="0.07" stroke-width="1.3" stroke-linecap="round"/><path d="M1371 994 Q1407 1078 1432 1164" fill="none" stroke="#fff4e2" stroke-opacity="0.06" stroke-width="1.8" stroke-linecap="round"/><path d="M1199 993 Q1191 1054 1188 1134" fill="none" stroke="#fff4e2" stroke-opacity="0.06" stroke-width="1.3" stroke-linecap="round"/><path d="M1054 1068 Q970 1149 924 1240" fill="none" stroke="#fff4e2" stroke-opacity="0.05" stroke-width="1.3" stroke-linecap="round"/><path d="M1115 989 Q1075 1062 1063 1148" fill="none" stroke="#fff4e2" stroke-opacity="0.07" stroke-width="1.7" stroke-linecap="round"/><path d="M1316 967 Q1337 1015 1340 1087" fill="none" stroke="#fff4e2" stroke-opacity="0.06" stroke-width="1.8" stroke-linecap="round"/><path d="M1078 1029 Q1011 1121 958 1229" fill="none" stroke="#fff4e2" stroke-opacity="0.07" stroke-width="1.9" stroke-linecap="round"/><path d="M1344 972 Q1372 1062 1387 1178" fill="none" stroke="#fff4e2" stroke-opacity="0.05" stroke-width="1.9" stroke-linecap="round"/><path d="M1281 984 Q1300 1059 1311 1135" fill="none" stroke="#fff4e2" stroke-opacity="0.07" stroke-width="1.0" stroke-linecap="round"/><path d="M1269 959 Q1279 1016 1285 1101" fill="none" stroke="#fff4e2" stroke-opacity="0.06" stroke-width="1.9" stroke-linecap="round"/><path d="M1245 938 Q1248 1002 1251 1065" fill="none" stroke="#fff4e2" stroke-opacity="0.04" stroke-width="1.8" stroke-linecap="round"/><path d="M1364 1001 Q1407 1099 1429 1205" fill="none" stroke="#fff4e2" stroke-opacity="0.06" stroke-width="1.7" stroke-linecap="round"/><path d="M1348 969 Q1371 1034 1383 1113" fill="none" stroke="#fff4e2" stroke-opacity="0.07" stroke-width="1.7" stroke-linecap="round"/><path d="M1109 1023 Q1052 1118 1010 1217" fill="none" stroke="#fff4e2" stroke-opacity="0.04" stroke-width="1.6" stroke-linecap="round"/><path d="M1151 1007 Q1128 1063 1126 1143" fill="none" stroke="#fff4e2" stroke-opacity="0.06" stroke-width="1.3" stroke-linecap="round"/><path d="M1443 1090 Q1488 1153 1506 1222" fill="none" stroke="#8a8f9c" stroke-opacity="0.02" stroke-width="2.1" stroke-linecap="round"/><path d="M1045 1101 Q994 1134 992 1177" fill="none" stroke="#8a8f9c" stroke-opacity="0.02" stroke-width="1.1" stroke-linecap="round"/><path d="M1193 950 Q1173 1006 1163 1079" fill="none" stroke="#fff4e2" stroke-opacity="0.05" stroke-width="1.6" stroke-linecap="round"/><path d="M1368 1008 Q1417 1116 1440 1243" fill="none" stroke="#fff4e2" stroke-opacity="0.05" stroke-width="1.4" stroke-linecap="round"/><path d="M1093 1046 Q1052 1078 1049 1143" fill="none" stroke="#fff4e2" stroke-opacity="0.03" stroke-width="1.8" stroke-linecap="round"/><path d="M1137 995 Q1110 1055 1101 1140" fill="none" stroke="#fff4e2" stroke-opacity="0.04" stroke-width="1.8" stroke-linecap="round"/><path d="M1218 993 Q1200 1092 1185 1202" fill="none" stroke="#fff4e2" stroke-opacity="0.04" stroke-width="1.2" stroke-linecap="round"/><path d="M1262 946 Q1268 984 1272 1052" fill="none" stroke="#fff4e2" stroke-opacity="0.04" stroke-width="1.3" stroke-linecap="round"/><path d="M1364 992 Q1402 1042 1423 1127" fill="none" stroke="#fff4e2" stroke-opacity="0.05" stroke-width="2.2" stroke-linecap="round"/><path d="M1418 1018 Q1485 1113 1534 1239" fill="none" stroke="#fff4e2" stroke-opacity="0.07" stroke-width="1.9" stroke-linecap="round"/><path d="M1293 946 Q1310 985 1317 1050" fill="none" stroke="#fff4e2" stroke-opacity="0.05" stroke-width="1.8" stroke-linecap="round"/><path d="M1212 981 Q1184 1089 1161 1225" fill="none" stroke="#fff4e2" stroke-opacity="0.05" stroke-width="2.0" stroke-linecap="round"/><path d="M1164 983 Q1131 1049 1107 1146" fill="none" stroke="#fff4e2" stroke-opacity="0.06" stroke-width="1.5" stroke-linecap="round"/><path d="M1454 1106 Q1507 1134 1518 1188" fill="none" stroke="#8a8f9c" stroke-opacity="0.03" stroke-width="1.0" stroke-linecap="round"/><path d="M1432 1047 Q1502 1145 1548 1244" fill="none" stroke="#fff4e2" stroke-opacity="0.08" stroke-width="1.3" stroke-linecap="round"/><path d="M1053 1050 Q994 1145 959 1244" fill="none" stroke="#fff4e2" stroke-opacity="0.07" stroke-width="1.8" stroke-linecap="round"/><path d="M1286 946 Q1298 1064 1306 1196" fill="none" stroke="#fff4e2" stroke-opacity="0.03" stroke-width="2.2" stroke-linecap="round"/><path d="M1080 1062 Q1030 1148 995 1259" fill="none" stroke="#fff4e2" stroke-opacity="0.05" stroke-width="1.6" stroke-linecap="round"/><path d="M1097 1021 Q1060 1066 1057 1126" fill="none" stroke="#fff4e2" stroke-opacity="0.04" stroke-width="1.3" stroke-linecap="round"/><path d="M1233 973 Q1227 1084 1225 1214" fill="none" stroke="#fff4e2" stroke-opacity="0.08" stroke-width="1.3" stroke-linecap="round"/><path d="M1042 1079 Q994 1123 977 1169" fill="none" stroke="#fff4e2" stroke-opacity="0.08" stroke-width="1.6" stroke-linecap="round"/><path d="M1413 1040 Q1477 1123 1519 1232" fill="none" stroke="#fff4e2" stroke-opacity="0.04" stroke-width="1.7" stroke-linecap="round"/><path d="M1291 983 Q1299 1043 1298 1131" fill="none" stroke="#fff4e2" stroke-opacity="0.08" stroke-width="1.1" stroke-linecap="round"/><path d="M1125 978 Q1081 1067 1061 1184" fill="none" stroke="#fff4e2" stroke-opacity="0.06" stroke-width="1.7" stroke-linecap="round"/><path d="M1431 1057 Q1495 1125 1529 1220" fill="none" stroke="#fff4e2" stroke-opacity="0.06" stroke-width="1.2" stroke-linecap="round"/><path d="M1218 962 Q1206 1047 1199 1146" fill="none" stroke="#fff4e2" stroke-opacity="0.05" stroke-width="1.4" stroke-linecap="round"/><path d="M1453 1057 Q1516 1143 1549 1246" fill="none" stroke="#fff4e2" stroke-opacity="0.06" stroke-width="1.4" stroke-linecap="round"/><path d="M1138 965 Q1101 1078 1079 1208" fill="none" stroke="#fff4e2" stroke-opacity="0.05" stroke-width="1.1" stroke-linecap="round"/><path d="M1419 1054 Q1463 1100 1473 1176" fill="none" stroke="#fff4e2" stroke-opacity="0.05" stroke-width="1.5" stroke-linecap="round"/><path d="M1135 1010 Q1101 1114 1078 1239" fill="none" stroke="#fff4e2" stroke-opacity="0.08" stroke-width="1.9" stroke-linecap="round"/><path d="M1232 945 Q1217 1036 1202 1157" fill="none" stroke="#fff4e2" stroke-opacity="0.06" stroke-width="1.6" stroke-linecap="round"/><path d="M1418 1059 Q1459 1098 1469 1153" fill="none" stroke="#fff4e2" stroke-opacity="0.04" stroke-width="2.1" stroke-linecap="round"/><path d="M1349 965 Q1374 1031 1382 1109" fill="none" stroke="#fff4e2" stroke-opacity="0.05" stroke-width="2.0" stroke-linecap="round"/><path d="M1113 1020 Q1045 1129 1011 1249" fill="none" stroke="#fff4e2" stroke-opacity="0.06" stroke-width="1.1" stroke-linecap="round"/><path d="M1211 974 Q1204 1046 1200 1122" fill="none" stroke="#fff4e2" stroke-opacity="0.06" stroke-width="1.2" stroke-linecap="round"/><path d="M1167 986 Q1148 1063 1140 1161" fill="none" stroke="#fff4e2" stroke-opacity="0.04" stroke-width="1.9" stroke-linecap="round"/><path d="M1102 1003 Q1043 1110 1001 1225" fill="none" stroke="#fff4e2" stroke-opacity="0.04" stroke-width="1.3" stroke-linecap="round"/><path d="M1178 969 Q1160 1041 1154 1126" fill="none" stroke="#fff4e2" stroke-opacity="0.07" stroke-width="2.1" stroke-linecap="round"/><path d="M1218 990 Q1197 1104 1182 1243" fill="none" stroke="#fff4e2" stroke-opacity="0.05" stroke-width="1.3" stroke-linecap="round"/><path d="M1093 1045 Q1033 1129 999 1231" fill="none" stroke="#fff4e2" stroke-opacity="0.04" stroke-width="1.2" stroke-linecap="round"/><path d="M1180 985 Q1164 1022 1163 1074" fill="none" stroke="#fff4e2" stroke-opacity="0.03" stroke-width="1.3" stroke-linecap="round"/><path d="M1126 1017 Q1094 1081 1078 1155" fill="none" stroke="#fff4e2" stroke-opacity="0.04" stroke-width="1.4" stroke-linecap="round"/><path d="M1375 1016 Q1433 1125 1467 1238" fill="none" stroke="#fff4e2" stroke-opacity="0.03" stroke-width="1.2" stroke-linecap="round"/><path d="M1146 990 Q1117 1078 1104 1175" fill="none" stroke="#fff4e2" stroke-opacity="0.08" stroke-width="1.9" stroke-linecap="round"/><path d="M1182 949 Q1168 1013 1170 1082" fill="none" stroke="#fff4e2" stroke-opacity="0.06" stroke-width="1.4" stroke-linecap="round"/><path d="M1417 1022 Q1459 1062 1464 1137" fill="none" stroke="#fff4e2" stroke-opacity="0.06" stroke-width="1.8" stroke-linecap="round"/><path d="M1156 971 Q1108 1081 1068 1212" fill="none" stroke="#fff4e2" stroke-opacity="0.05" stroke-width="1.2" stroke-linecap="round"/><path d="M1222 990 Q1212 1036 1207 1107" fill="none" stroke="#fff4e2" stroke-opacity="0.06" stroke-width="1.2" stroke-linecap="round"/><path d="M1411 1006 Q1449 1058 1460 1127" fill="none" stroke="#fff4e2" stroke-opacity="0.06" stroke-width="1.9" stroke-linecap="round"/><path d="M1419 1034 Q1470 1136 1505 1249" fill="none" stroke="#fff4e2" stroke-opacity="0.04" stroke-width="1.7" stroke-linecap="round"/><path d="M1371 977 Q1418 1087 1440 1201" fill="none" stroke="#fff4e2" stroke-opacity="0.06" stroke-width="2.0" stroke-linecap="round"/><path d="M1211 948 Q1203 1017 1200 1092" fill="none" stroke="#fff4e2" stroke-opacity="0.05" stroke-width="1.2" stroke-linecap="round"/><path d="M1201 972 Q1185 1049 1180 1129" fill="none" stroke="#fff4e2" stroke-opacity="0.05" stroke-width="2.1" stroke-linecap="round"/><path d="M1407 1047 Q1467 1116 1493 1206" fill="none" stroke="#fff4e2" stroke-opacity="0.04" stroke-width="1.3" stroke-linecap="round"/><path d="M1077 1061 Q1022 1128 997 1199" fill="none" stroke="#fff4e2" stroke-opacity="0.07" stroke-width="2.0" stroke-linecap="round"/><path d="M1377 1023 Q1409 1065 1413 1132" fill="none" stroke="#fff4e2" stroke-opacity="0.05" stroke-width="1.4" stroke-linecap="round"/><path d="M1101 1036 Q1043 1134 1007 1243" fill="none" stroke="#fff4e2" stroke-opacity="0.06" stroke-width="1.9" stroke-linecap="round"/><path d="M1415 1023 Q1472 1078 1491 1162" fill="none" stroke="#fff4e2" stroke-opacity="0.06" stroke-width="1.4" stroke-linecap="round"/><path d="M1153 1007 Q1133 1072 1123 1145" fill="none" stroke="#fff4e2" stroke-opacity="0.08" stroke-width="1.0" stroke-linecap="round"/><path d="M1383 1007 Q1428 1081 1452 1175" fill="none" stroke="#fff4e2" stroke-opacity="0.03" stroke-width="2.1" stroke-linecap="round"/><path d="M1079 1017 Q1018 1094 994 1197" fill="none" stroke="#fff4e2" stroke-opacity="0.08" stroke-width="1.1" stroke-linecap="round"/><path d="M1040 1078 Q992 1114 981 1178" fill="none" stroke="#fff4e2" stroke-opacity="0.04" stroke-width="1.6" stroke-linecap="round"/><path d="M1422 1053 Q1472 1112 1499 1206" fill="none" stroke="#fff4e2" stroke-opacity="0.07" stroke-width="1.8" stroke-linecap="round"/><path d="M1166 993 Q1133 1086 1112 1212" fill="none" stroke="#fff4e2" stroke-opacity="0.06" stroke-width="1.5" stroke-linecap="round"/><path d="M1277 983 Q1288 1093 1298 1235" fill="none" stroke="#fff4e2" stroke-opacity="0.07" stroke-width="1.6" stroke-linecap="round"/><path d="M1400 999 Q1457 1090 1481 1194" fill="none" stroke="#fff4e2" stroke-opacity="0.08" stroke-width="1.8" stroke-linecap="round"/><path d="M1054 1047 Q985 1117 943 1197" fill="none" stroke="#fff4e2" stroke-opacity="0.05" stroke-width="1.1" stroke-linecap="round"/><path d="M1426 1062 Q1478 1123 1506 1206" fill="none" stroke="#fff4e2" stroke-opacity="0.05" stroke-width="2.2" stroke-linecap="round"/><path d="M1446 1081 Q1486 1117 1506 1165" fill="none" stroke="#8a8f9c" stroke-opacity="0.02" stroke-width="1.5" stroke-linecap="round"/><path d="M1459 1109 Q1512 1158 1540 1208" fill="none" stroke="#8a8f9c" stroke-opacity="0.02" stroke-width="1.1" stroke-linecap="round"/><path d="M1262 953 Q1270 1040 1275 1138" fill="none" stroke="#fff4e2" stroke-opacity="0.07" stroke-width="1.8" stroke-linecap="round"/><path d="M1342 981 Q1364 1040 1377 1115" fill="none" stroke="#fff4e2" stroke-opacity="0.06" stroke-width="1.2" stroke-linecap="round"/><path d="M1405 1043 Q1474 1140 1516 1243" fill="none" stroke="#fff4e2" stroke-opacity="0.04" stroke-width="1.9" stroke-linecap="round"/><path d="M1458 1067 Q1508 1123 1528 1200" fill="none" stroke="#fff4e2" stroke-opacity="0.04" stroke-width="2.0" stroke-linecap="round"/><path d="M1180 997 Q1160 1049 1148 1136" fill="none" stroke="#fff4e2" stroke-opacity="0.06" stroke-width="2.0" stroke-linecap="round"/><path d="M1062 1060 Q980 1172 943 1288" fill="none" stroke="#fff4e2" stroke-opacity="0.05" stroke-width="2.2" stroke-linecap="round"/><path d="M1265 990 Q1266 1032 1264 1084" fill="none" stroke="#fff4e2" stroke-opacity="0.06" stroke-width="1.4" stroke-linecap="round"/><path d="M1283 991 Q1308 1093 1328 1226" fill="none" stroke="#fff4e2" stroke-opacity="0.03" stroke-width="1.5" stroke-linecap="round"/><path d="M1441 1048 Q1499 1117 1533 1213" fill="none" stroke="#fff4e2" stroke-opacity="0.06" stroke-width="1.1" stroke-linecap="round"/><path d="M1431 1024 Q1479 1086 1508 1151" fill="none" stroke="#fff4e2" stroke-opacity="0.08" stroke-width="2.0" stroke-linecap="round"/><path d="M1232 981 Q1237 1100 1244 1228" fill="none" stroke="#fff4e2" stroke-opacity="0.06" stroke-width="2.2" stroke-linecap="round"/><path d="M1349 995 Q1385 1055 1404 1145" fill="none" stroke="#fff4e2" stroke-opacity="0.04" stroke-width="2.0" stroke-linecap="round"/><path d="M1046 1084 Q990 1125 985 1182" fill="none" stroke="#8a8f9c" stroke-opacity="0.02" stroke-width="1.5" stroke-linecap="round"/><path d="M1289 963 Q1294 1014 1290 1069" fill="none" stroke="#fff4e2" stroke-opacity="0.04" stroke-width="2.0" stroke-linecap="round"/><path d="M1405 1044 Q1438 1075 1438 1129" fill="none" stroke="#fff4e2" stroke-opacity="0.05" stroke-width="1.0" stroke-linecap="round"/><path d="M1221 951 Q1211 1078 1204 1207" fill="none" stroke="#fff4e2" stroke-opacity="0.06" stroke-width="1.1" stroke-linecap="round"/><path d="M1131 993 Q1106 1055 1097 1134" fill="none" stroke="#fff4e2" stroke-opacity="0.04" stroke-width="1.5" stroke-linecap="round"/><path d="M1336 970 Q1359 1017 1372 1086" fill="none" stroke="#fff4e2" stroke-opacity="0.05" stroke-width="2.1" stroke-linecap="round"/><path d="M1080 1050 Q1038 1108 1015 1188" fill="none" stroke="#fff4e2" stroke-opacity="0.07" stroke-width="1.6" stroke-linecap="round"/><path d="M1238 975 Q1237 1047 1237 1137" fill="none" stroke="#fff4e2" stroke-opacity="0.06" stroke-width="2.1" stroke-linecap="round"/><path d="M1463 1101 Q1517 1142 1531 1209" fill="none" stroke="#8a8f9c" stroke-opacity="0.02" stroke-width="1.8" stroke-linecap="round"/><path d="M1465 1096 Q1538 1143 1570 1222" fill="none" stroke="#8a8f9c" stroke-opacity="0.02" stroke-width="1.4" stroke-linecap="round"/><path d="M1458 1064 Q1524 1126 1547 1211" fill="none" stroke="#fff4e2" stroke-opacity="0.08" stroke-width="1.8" stroke-linecap="round"/><path d="M1036 1077 Q973 1130 930 1202" fill="none" stroke="#fff4e2" stroke-opacity="0.06" stroke-width="1.2" stroke-linecap="round"/><path d="M1403 1016 Q1456 1071 1479 1146" fill="none" stroke="#fff4e2" stroke-opacity="0.04" stroke-width="1.9" stroke-linecap="round"/><path d="M1037 1085 Q947 1181 894 1278" fill="none" stroke="#8a8f9c" stroke-opacity="0.02" stroke-width="1.7" stroke-linecap="round"/><path d="M1383 983 Q1427 1046 1448 1125" fill="none" stroke="#fff4e2" stroke-opacity="0.05" stroke-width="2.2" stroke-linecap="round"/><path d="M1430 1071 Q1495 1159 1540 1249" fill="none" stroke="#fff4e2" stroke-opacity="0.07" stroke-width="1.8" stroke-linecap="round"/><path d="M1306 960 Q1325 1082 1333 1205" fill="none" stroke="#fff4e2" stroke-opacity="0.05" stroke-width="1.4" stroke-linecap="round"/></g>
<g clip-path="url(#clip-hair)" mask="url(#maskHair)"><use href="#hair" fill="none" stroke="#fff4e2" stroke-width="26" stroke-opacity="0.85" filter="url(#blur8)"/></g>
<use href="#hair" fill="none" stroke="#fff4e2" stroke-opacity="0.6" stroke-width="2" mask="url(#maskHair)"/>
<path d="M1027.9 1104.5 Q1025.3 1105.7 1015.7 1098.5" fill="none" stroke="#fff4e2" stroke-opacity="0.35" stroke-width="1.4" stroke-linecap="round"/><path d="M1043.0 1073.2 Q1036.6 1074.1 1028.3 1067.7" fill="none" stroke="#fff4e2" stroke-opacity="0.63" stroke-width="1.4" stroke-linecap="round"/><path d="M1063.2 1031.2 Q1045.0 1019.0 1047.2 1023.4" fill="none" stroke="#fff4e2" stroke-opacity="0.64" stroke-width="1.4" stroke-linecap="round"/><path d="M1091.0 1002.9 Q1077.7 1000.3 1077.0 990.6" fill="none" stroke="#fff4e2" stroke-opacity="0.39" stroke-width="1.4" stroke-linecap="round"/><path d="M1117.4 981.8 Q1119.0 973.1 1108.6 972.0" fill="none" stroke="#fff4e2" stroke-opacity="0.62" stroke-width="1.4" stroke-linecap="round"/><path d="M1148.9 956.1 Q1151.1 949.8 1140.3 940.1" fill="none" stroke="#fff4e2" stroke-opacity="0.67" stroke-width="1.4" stroke-linecap="round"/><path d="M1187.4 948.3 Q1187.6 934.8 1181.4 935.9" fill="none" stroke="#fff4e2" stroke-opacity="0.46" stroke-width="1.4" stroke-linecap="round"/><path d="M1230.1 936.5 Q1222.1 921.5 1228.7 914.7" fill="none" stroke="#fff4e2" stroke-opacity="0.39" stroke-width="1.4" stroke-linecap="round"/><path d="M1273.6 941.3 Q1278.3 930.2 1275.9 924.4" fill="none" stroke="#fff4e2" stroke-opacity="0.62" stroke-width="1.4" stroke-linecap="round"/><path d="M1310.0 944.1 Q1316.6 936.6 1313.9 928.5" fill="none" stroke="#fff4e2" stroke-opacity="0.66" stroke-width="1.4" stroke-linecap="round"/><path d="M1347.0 958.5 Q1355.2 947.7 1353.3 939.9" fill="none" stroke="#fff4e2" stroke-opacity="0.49" stroke-width="1.4" stroke-linecap="round"/><path d="M1382.3 980.7 Q1382.7 970.0 1392.5 970.2" fill="none" stroke="#fff4e2" stroke-opacity="0.39" stroke-width="1.4" stroke-linecap="round"/><path d="M1415.7 1003.3 Q1426.0 996.3 1424.6 989.8" fill="none" stroke="#fff4e2" stroke-opacity="0.42" stroke-width="1.4" stroke-linecap="round"/><path d="M1435.6 1035.8 Q1447.7 1023.8 1451.2 1024.0" fill="none" stroke="#fff4e2" stroke-opacity="0.55" stroke-width="1.4" stroke-linecap="round"/><path d="M1458.9 1068.4 Q1463.1 1069.7 1473.2 1062.0" fill="none" stroke="#fff4e2" stroke-opacity="0.57" stroke-width="1.4" stroke-linecap="round"/>
<use href="#chair" fill="url(#chairShade)"/>
<g clip-path="url(#clip-chair)" mask="url(#maskChair)"><use href="#chair" fill="none" stroke="#fff4e2" stroke-width="12" stroke-opacity="0.35" filter="url(#blur3)"/></g>
<path d="M896 1800 L892 2250" stroke="#ffffff" stroke-opacity="0.025" stroke-width="2"/><path d="M938 1800 L935 2250" stroke="#ffffff" stroke-opacity="0.025" stroke-width="2"/><path d="M980 1800 L978 2250" stroke="#ffffff" stroke-opacity="0.025" stroke-width="2"/><path d="M1022 1800 L1021 2250" stroke="#ffffff" stroke-opacity="0.025" stroke-width="2"/><path d="M1064 1800 L1064 2250" stroke="#ffffff" stroke-opacity="0.025" stroke-width="2"/><path d="M1106 1800 L1107 2250" stroke="#ffffff" stroke-opacity="0.025" stroke-width="2"/><path d="M1148 1800 L1150 2250" stroke="#ffffff" stroke-opacity="0.025" stroke-width="2"/><path d="M1190 1800 L1193 2250" stroke="#ffffff" stroke-opacity="0.025" stroke-width="2"/><path d="M1232 1800 L1236 2250" stroke="#ffffff" stroke-opacity="0.025" stroke-width="2"/><path d="M1274 1800 L1279 2250" stroke="#ffffff" stroke-opacity="0.025" stroke-width="2"/><path d="M1316 1800 L1322 2250" stroke="#ffffff" stroke-opacity="0.025" stroke-width="2"/><path d="M1358 1800 L1365 2250" stroke="#ffffff" stroke-opacity="0.025" stroke-width="2"/><path d="M1400 1800 L1408 2250" stroke="#ffffff" stroke-opacity="0.025" stroke-width="2"/><path d="M1442 1800 L1451 2250" stroke="#ffffff" stroke-opacity="0.025" stroke-width="2"/><path d="M1484 1800 L1494 2250" stroke="#ffffff" stroke-opacity="0.025" stroke-width="2"/><path d="M1526 1800 L1537 2250" stroke="#ffffff" stroke-opacity="0.025" stroke-width="2"/><path d="M1568 1800 L1580 2250" stroke="#ffffff" stroke-opacity="0.025" stroke-width="2"/><path d="M1610 1800 L1623 2250" stroke="#ffffff" stroke-opacity="0.025" stroke-width="2"/>
<rect x="0" y="1990" width="3600" height="260" fill="url(#fadeBottom)"/>
</svg>
