<svg xmlns="http://www.w3.org/2000/svg" viewBox="0 0 3600 2250" width="3600" height="2250">
<defs>
  <path id="hair" d="M1248.6 928.2 C1256.1 928.1 1264.7 927.6 1271.8 928.5 C1278.9 929.4 1285.3 931.7 1291.3 933.5 C1297.2 935.3 1301.6 937.2 1307.5 939.1 C1313.5 941.0 1320.6 942.9 1327.0 944.7 C1333.5 946.5 1339.6 946.4 1346.3 949.8 C1353.0 953.3 1361.4 961.6 1367.4 965.2 C1373.4 968.8 1376.5 967.4 1382.4 971.5 C1388.2 975.6 1396.9 985.2 1402.7 989.8 C1408.6 994.4 1412.2 995.6 1417.5 999.3 C1422.8 1002.9 1429.8 1006.6 1434.6 1011.7 C1439.4 1016.8 1443.4 1024.2 1446.2 1030.0 C1449.0 1035.7 1448.8 1039.3 1451.5 1045.9 C1454.2 1052.6 1459.4 1063.0 1462.4 1069.8 C1465.3 1076.6 1466.4 1081.1 1469.2 1086.9 C1472.0 1092.8 1476.8 1099.0 1479.1 1104.9 C1481.3 1110.8 1482.4 1116.0 1482.8 1122.5 C1483.2 1129.1 1480.8 1136.8 1481.6 1144.1 C1482.4 1151.4 1487.4 1159.2 1487.4 1166.4 C1487.5 1173.6 1483.6 1181.0 1481.7 1187.4 C1479.9 1193.8 1478.8 1198.1 1476.4 1204.6 C1474.0 1211.2 1470.9 1219.7 1467.5 1226.5 C1464.0 1233.3 1460.0 1239.1 1455.8 1245.3 C1451.6 1251.5 1447.1 1257.6 1442.3 1263.5 C1437.6 1269.5 1432.5 1275.3 1427.4 1281.0 C1422.3 1286.7 1416.9 1292.2 1411.5 1297.6 C1406.2 1303.0 1400.6 1308.2 1395.1 1313.3 C1389.6 1318.3 1384.0 1323.2 1378.5 1327.8 C1373.0 1332.4 1367.5 1336.9 1362.1 1341.1 C1356.7 1345.3 1351.3 1348.5 1346.0 1353.1 C1340.8 1357.8 1335.6 1364.9 1330.5 1369.1 C1325.4 1373.2 1320.5 1377.3 1315.7 1378.0 C1310.8 1378.8 1306.1 1372.9 1301.5 1373.7 C1296.9 1374.5 1292.4 1378.7 1288.0 1382.8 C1283.5 1386.9 1279.2 1396.2 1275.0 1398.2 C1270.7 1400.1 1266.6 1396.7 1262.4 1394.7 C1258.2 1392.6 1254.1 1386.2 1250.0 1386.0 C1245.9 1385.9 1241.8 1391.6 1237.6 1393.7 C1233.4 1395.8 1229.3 1400.1 1225.0 1398.4 C1220.8 1396.8 1216.5 1387.9 1212.0 1383.7 C1207.6 1379.5 1203.1 1374.3 1198.5 1373.2 C1193.9 1372.1 1189.2 1377.8 1184.3 1377.2 C1179.5 1376.7 1174.6 1373.8 1169.5 1369.8 C1164.4 1365.7 1159.2 1357.9 1154.0 1353.1 C1148.7 1348.4 1143.3 1345.3 1137.9 1341.1 C1132.5 1336.9 1127.0 1332.4 1121.5 1327.8 C1116.0 1323.2 1110.4 1318.3 1104.9 1313.3 C1099.4 1308.2 1093.8 1303.0 1088.5 1297.6 C1083.1 1292.2 1077.7 1286.7 1072.6 1281.0 C1067.5 1275.3 1062.4 1269.5 1057.7 1263.5 C1052.9 1257.6 1048.4 1251.5 1044.2 1245.3 C1040.0 1239.1 1035.6 1232.7 1032.5 1226.5 C1029.4 1220.2 1028.6 1214.4 1025.6 1207.8 C1022.6 1201.3 1016.6 1193.6 1014.7 1187.3 C1012.8 1181.0 1013.9 1177.1 1014.2 1170.0 C1014.5 1162.9 1015.5 1152.6 1016.7 1144.7 C1017.9 1136.9 1020.7 1129.1 1021.4 1123.0 C1022.2 1116.8 1020.7 1114.1 1021.4 1108.0 C1022.1 1101.8 1023.6 1092.8 1025.4 1086.2 C1027.3 1079.6 1028.7 1074.7 1032.4 1068.6 C1036.1 1062.5 1043.2 1056.0 1047.7 1049.6 C1052.3 1043.2 1055.8 1035.7 1059.7 1030.1 C1063.5 1024.6 1066.8 1021.1 1070.8 1016.1 C1074.8 1011.0 1078.7 1004.2 1083.8 999.8 C1088.8 995.4 1095.9 993.9 1101.0 989.8 C1106.1 985.6 1109.9 979.3 1114.4 975.0 C1119.0 970.7 1122.3 967.2 1128.5 964.2 C1134.7 961.2 1144.2 960.5 1151.4 957.1 C1158.7 953.6 1165.8 946.3 1171.9 943.5 C1178.0 940.7 1182.4 941.9 1188.0 940.4 C1193.6 938.9 1198.7 936.2 1205.2 934.3 C1211.7 932.4 1219.5 929.8 1226.8 928.8 C1234.0 927.8 1241.1 928.3 1248.6 928.2 Z"/>
  <path id="body" d="M1250.0 1452.0 C1293.3 1452.0 1335.0 1454.0 1380.0 1462.0 C1425.0 1470.0 1473.3 1485.7 1520.0 1500.0 C1566.7 1514.3 1620.0 1531.3 1660.0 1548.0 C1700.0 1564.7 1734.7 1578.0 1760.0 1600.0 C1785.3 1622.0 1799.3 1643.3 1812.0 1680.0 C1824.7 1716.7 1829.3 1766.7 1836.0 1820.0 C1842.7 1873.3 1847.0 1928.3 1852.0 2000.0 C1857.0 2071.7 2069.0 2208.3 1866.0 2250.0 C1663.0 2291.7 837.0 2291.7 634.0 2250.0 C431.0 2208.3 643.0 2071.7 648.0 2000.0 C653.0 1928.3 657.3 1873.3 664.0 1820.0 C670.7 1766.7 675.3 1716.7 688.0 1680.0 C700.7 1643.3 714.7 1622.0 740.0 1600.0 C765.3 1578.0 800.0 1564.7 840.0 1548.0 C880.0 1531.3 933.3 1514.3 980.0 1500.0 C1026.7 1485.7 1075.0 1470.0 1120.0 1462.0 C1165.0 1454.0 1206.7 1452.0 1250.0 1452.0 Z"/>
  <path id="chair" d="M872 1834 C872 1786 912 1760 974 1756 C1076 1750 1160 1748 1250 1748 C1340 1748 1424 1750 1526 1756 C1588 1760 1628 1786 1628 1834 L1644 2250 L856 2250 Z"/>
  <path id="neck" d="M1146.0 1330.0 C1182.7 1315.0 1317.3 1315.0 1354.0 1330.0 C1390.7 1345.0 1359.7 1395.3 1366.0 1420.0 C1372.3 1444.7 1411.3 1466.3 1392.0 1478.0 C1372.7 1489.7 1297.3 1490.0 1250.0 1490.0 C1202.7 1490.0 1127.3 1489.7 1108.0 1478.0 C1088.7 1466.3 1127.7 1444.7 1134.0 1420.0 C1140.3 1395.3 1109.3 1345.0 1146.0 1330.0 Z"/>
  <clipPath id="clip-hair"><use href="#hair"/></clipPath>
  <clipPath id="clip-body"><use href="#body"/></clipPath>
  <clipPath id="clip-chair"><use href="#chair"/></clipPath>
  <clipPath id="clip-neck"><use href="#neck"/></clipPath>
  <filter id="blur3" x="-20%" y="-20%" width="140%" height="140%"><feGaussianBlur stdDeviation="3"/></filter>
  <filter id="blur8" x="-20%" y="-20%" width="140%" height="140%"><feGaussianBlur stdDeviation="8"/></filter>
  <filter id="blur14" x="-20%" y="-20%" width="140%" height="140%"><feGaussianBlur stdDeviation="14"/></filter>
  <filter id="blur30" x="-50%" y="-50%" width="200%" height="200%"><feGaussianBlur stdDeviation="30"/></filter>
  <linearGradient id="topLit" x1="0" y1="0" x2="0" y2="1">
    <stop offset="0" stop-color="#fff"/>
    <stop offset="0.5" stop-color="#fff" stop-opacity="0.5"/>
    <stop offset="1" stop-color="#fff" stop-opacity="0"/>
  </linearGradient>
  <linearGradient id="rightLit" x1="0" y1="0" x2="1" y2="0">
    <stop offset="0.55" stop-color="#fff" stop-opacity="0"/>
    <stop offset="1" stop-color="#fff"/>
  </linearGradient>
  <mask id="maskHair" maskUnits="userSpaceOnUse" x="0" y="900" width="3600" height="460"><rect x="0" y="900" width="3600" height="460" fill="url(#topLit)"/></mask>
  <mask id="maskBody" maskUnits="userSpaceOnUse" x="0" y="1440" width="3600" height="380"><rect x="0" y="1440" width="3600" height="380" fill="url(#topLit)"/></mask>
  <mask id="maskRight" maskUnits="userSpaceOnUse" x="600" y="1440" width="1300" height="810"><rect x="600" y="1440" width="1300" height="810" fill="url(#rightLit)"/></mask>
  <mask id="maskChair" maskUnits="userSpaceOnUse" x="0" y="1740" width="3600" height="160"><rect x="0" y="1740" width="3600" height="160" fill="url(#topLit)"/></mask>
  <radialGradient id="hairShade" cx="0.5" cy="0.25" r="0.8">
    <stop offset="0" stop-color="#3b312b"/>
    <stop offset="1" stop-color="#1d1814"/>
  </radialGradient>
  <linearGradient id="bodyShade" x1="0" y1="0" x2="0" y2="1">
    <stop offset="0" stop-color="#3a4a72"/>
    <stop offset="0.4" stop-color="#2a3658"/>
    <stop offset="1" stop-color="#1d2640"/>
  </linearGradient>
  <linearGradient id="neckShade" x1="0" y1="0" x2="1" y2="0">
    <stop offset="0" stop-color="#9c6c53"/>
    <stop offset="0.5" stop-color="#7b5341"/>
    <stop offset="1" stop-color="#a5745b"/>
  </linearGradient>
  <linearGradient id="chairShade" x1="0" y1="0" x2="0" y2="1">
    <stop offset="0" stop-color="#5a6170"/>
    <stop offset="1" stop-color="#343944"/>
  </linearGradient>
  <linearGradient id="fadeBottom" x1="0" y1="0" x2="0" y2="1">
    <stop offset="0" stop-color="#fafaf8" stop-opacity="0"/>
    <stop offset="1" stop-color="#fafaf8" stop-opacity="1"/>
  </linearGradient>
</defs>
<!-- Luz de la pantalla que se derrama alrededor de la cabeza -->
<ellipse cx="1250" cy="1120" rx="360" ry="320" fill="#ffffff" opacity="0.12" filter="url(#blur30)"/>
<use href="#body" fill="url(#bodyShade)"/>
<g clip-path="url(#clip-body)" mask="url(#maskBody)"><use href="#body" fill="none" stroke="#ffffff" stroke-width="18" stroke-opacity="0.6" filter="url(#blur8)"/></g>
<g clip-path="url(#clip-body)" mask="url(#maskRight)"><use href="#body" fill="none" stroke="#ffffff" stroke-width="22" stroke-opacity="0.35" filter="url(#blur14)"/></g>
<path d="M818 1720 C846 1860 860 2040 864 2250" fill="none" stroke="#000" stroke-opacity="0.45" stroke-width="18" filter="url(#blur8)"/>
<path d="M1682 1720 C1654 1860 1640 2040 1636 2250" fill="none" stroke="#000" stroke-opacity="0.45" stroke-width="18" filter="url(#blur8)"/>
<path d="M1250 1520 C1246 1640 1252 1720 1250 1760" fill="none" stroke="#000" stroke-opacity="0.35" stroke-width="10" filter="url(#blur8)"/>
<use href="#neck" fill="url(#neckShade)"/>
<g clip-path="url(#clip-neck)" mask="url(#maskBody)"><use href="#neck" fill="none" stroke="#ffffff" stroke-width="10" stroke-opacity="0.45" filter="url(#blur3)"/></g>
<path d="M1104 1470 C1150 1446 1350 1446 1396 1470 C1404 1492 1396 1510 1380 1516 C1330 1500 1170 1500 1120 1516 C1104 1510 1096 1492 1104 1470 Z" fill="#25335a"/>
<path d="M1104 1470 C1150 1446 1350 1446 1396 1470" fill="none" stroke="#ffffff" stroke-opacity="0.35" stroke-width="3"/>
<path d="M1030 1188 C1004 1186 994 1214 998 1246 C1002 1278 1018 1302 1042 1298 Z" fill="#a97561"/>
<path d="M1470 1188 C1496 1186 1506 1214 1502 1246 C1498 1278 1482 1302 1458 1298 Z" fill="#a97561"/>
<path d="M1000 1236 C1002 1270 1016 1292 1036 1296" fill="none" stroke="#ffc4a6" stroke-opacity="0.6" stroke-width="6" filter="url(#blur3)"/>
<path d="M1500 1236 C1498 1270 1484 1292 1464 1296" fill="none" stroke="#ffc4a6" stroke-opacity="0.6" stroke-width="6" filter="url(#blur3)"/>
<use href="#hair" fill="url(#hairShade)"/>
<g clip-path="url(#clip-hair)"><path d="M1060 1075 Q1008 1113 985 1183" fill="none" stroke="#ffffff" stroke-opacity="0.03" stroke-width="1.5" stroke-linecap="round"/><path d="M1271 986 Q1288 1096 1301 1221" fill="none" stroke="#ffffff" stroke-opacity="0.05" stroke-width="2.1" stroke-linecap="round"/><path d="M1447 1050 Q1489 1099 1507 1165" fill="none" stroke="#ffffff" stroke-opacity="0.06" stroke-width="1.3" stroke-linecap="round"/><path d="M1037 1094 Q956 1157 928 1245" fill="none" stroke="#75685d" stroke-opacity="0.03" stroke-width="1.7" stroke-linecap="round"/><path d="M1326 952 Q1367 1044 1391 1164" fill="none" stroke="#ffffff" stroke-opacity="0.05" stroke-width="1.5" stroke-linecap="round"/><path d="M1080 1044 Q1042 1084 1025 1130" fill="none" stroke="#ffffff" stroke-opacity="0.05" stroke-width="1.1" stroke-linecap="round"/><path d="M1035 1083 Q977 1126 939 1200" fill="none" stroke="#75685d" stroke-opacity="0.03" stroke-width="1.2" stroke-linecap="round"/><path d="M1143 981 Q1113 1015 1108 1086" fill="none" stroke="#ffffff" stroke-opacity="0.05" stroke-width="1.6" stroke-linecap="round"/><path d="M1072 1023 Q1018 1078 1003 1139" fill="none" stroke="#ffffff" stroke-opacity="0.03" stroke-width="2.1" stroke-linecap="round"/><path d="M1262 945 Q1265 974 1266 1039" fill="none" stroke="#ffffff" stroke-opacity="0.07" stroke-width="1.8" stroke-linecap="round"/><path d="M1147 980 Q1099 1070 1070 1187" fill="none" stroke="#ffffff" stroke-opacity="0.05" stroke-width="1.3" stroke-linecap="round"/><path d="M1384 1033 Q1448 1122 1483 1237" fill="none" stroke="#ffffff" stroke-opacity="0.04" stroke-width="1.6" stroke-linecap="round"/><path d="M1188 946 Q1165 1000 1151 1078" fill="none" stroke="#ffffff" stroke-opacity="0.08" stroke-width="1.5" stroke-linecap="round"/><path d="M1438 1085 Q1494 1142 1527 1208" fill="none" stroke="#75685d" stroke-opacity="0.02" stroke-width="1.2" stroke-linecap="round"/><path d="M1303 993 Q1327 1062 1341 1160" fill="none" stroke="#ffffff" stroke-opacity="0.03" stroke-width="1.8" stroke-linecap="round"/><path d="M1426 1059 Q1481 1118 1515 1205" fill="none" stroke="#ffffff" stroke-opacity="0.05" stroke-width="2.0" stroke-linecap="round"/><path d="M1453 1073 Q1539 1177 1584 1288" fill="none" stroke="#ffffff" stroke-opacity="0.04" stroke-width="1.2" stroke-linecap="round"/><path d="M1424 1058 Q1492 1151 1517 1269" fill="none" stroke="#ffffff" stroke-opacity="0.05" stroke-width="1.7" stroke-linecap="round"/><path d="M1091 998 Q1043 1076 1023 1187" fill="none" stroke="#ffffff" stroke-opacity="0.05" stroke-width="2.0" stroke-linecap="round"/><path d="M1390 994 Q1423 1049 1437 1126" fill="none" stroke="#ffffff" stroke-opacity="0.04" stroke-width="1.5" stroke-linecap="round"/><path d="M1091 1048 Q1038 1107 1014 1197" fill="none" stroke="#ffffff" stroke-opacity="0.05" stroke-width="2.1" stroke-linecap="round"/><path d="M1251 966 Q1251 1009 1251 1059" fill="none" stroke="#ffffff" stroke-opacity="0.03" stroke-width="2.0" stroke-linecap="round"/><path d="M1109 1009 Q1068 1087 1046 1183" fill="none" stroke="#ffffff" stroke-opacity="0.06" stroke-width="1.9" stroke-linecap="round"/><path d="M1081 1039 Q1028 1089 1011 1157" fill="none" stroke="#ffffff" stroke-opacity="0.06" stroke-width="1.9" stroke-linecap="round"/><path d="M1427 1041 Q1486 1105 1515 1194" fill="none" stroke="#ffffff" stroke-opacity="0.05" stroke-width="1.6" stroke-linecap="round"/><path d="M1241 989 Q1241 1104 1244 1228" fill="none" stroke="#ffffff" stroke-opacity="0.06" stroke-width="2.1" stroke-linecap="round"/><path d="M1396 994 Q1430 1068 1450 1151" fill="none" stroke="#ffffff" stroke-opacity="0.03" stroke-width="1.8" stroke-linecap="round"/><path d="M1372 1020 Q1412 1120 1429 1224" fill="none" stroke="#ffffff" stroke-opacity="0.07" stroke-width="2.2" stroke-linecap="round"/><path d="M1129 1022 Q1084 1088 1069 1184" fill="none" stroke="#ffffff" stroke-opacity="0.04" stroke-width="1.5" stroke-linecap="round"/><path d="M1257 955 Q1254 1027 1250 1099" fill="none" stroke="#ffffff" stroke-opacity="0.06" stroke-width="1.5" stroke-linecap="round"/><path d="M1043 1078 Q986 1135 949 1228" fill="none" stroke="#ffffff" stroke-opacity="0.07" stroke-width="2.2" stroke-linecap="round"/><path d="M1080 1023 Q1009 1114 959 1210" fill="none" stroke="#ffffff" stroke-opacity="0.05" stroke-width="2.1" stroke-linecap="round"/><path d="M1387 994 Q1437 1099 1463 1229" fill="none" stroke="#ffffff" stroke-opacity="0.03" stroke-width="1.1" stroke-linecap="round"/><path d="M1331 974 Q1356 1083 1365 1221" fill="none" stroke="#ffffff" stroke-opacity="0.03" stroke-width="2.0" stroke-linecap="round"/><path d="M1064 1076 Q1009 1122 989 1203" fill="none" stroke="#ffffff" stroke-opacity="0.04" stroke-width="1.2" stroke-linecap="round"/><path d="M1262 950 Q1259 1005 1256 1067" fill="none" stroke="#ffffff" stroke-opacity="0.05" stroke-width="1.4" stroke-linecap="round"/><path d="M1362 980 Q1388 1037 1399 1095" fill="none" stroke="#ffffff" stroke-opacity="0.04" stroke-width="1.0" stroke-linecap="round"/><path d="M1350 989 Q1381 1071 1387 1156" fill="none" stroke="#ffffff" stroke-opacity="0.07" stroke-width="1.5" stroke-linecap="round"/><path d="M1248 983 Q1245 1053 1243 1159" fill="none" stroke="#ffffff" stroke-opacity="0.05" stroke-width="2.0" stroke-linecap="round"/><path d="M1339 989 Q1360 1059 1373 1134" fill="none" stroke="#ffffff" stroke-opacity="0.03" stroke-width="1.9" stroke-linecap="round"/><path d="M1145 970 Q1089 1066 1058 1186" fill="none" stroke="#ffffff" stroke-opacity="0.04" stroke-width="1.3" stroke-linecap="round"/><path d="M1161 979 Q1129 1040 1109 1136" fill="none" stroke="#ffffff" stroke-opacity="0.08" stroke-width="1.7" stroke-linecap="round"/><path d="M1140 1017 Q1110 1081 1089 1159" fill="none" stroke="#ffffff" stroke-opacity="0.05" stroke-width="1.6" stroke-linecap="round"/><path d="M1121 1002 Q1085 1055 1061 1123" fill="none" stroke="#ffffff" stroke-opacity="0.03" stroke-width="1.0" stroke-linecap="round"/><path d="M1166 965 Q1137 1041 1127 1140" fill="none" stroke="#ffffff" stroke-opacity="0.07" stroke-width="2.1" stroke-linecap="round"/><path d="M1202 959 Q1196 1005 1199 1074" fill="none" stroke="#ffffff" stroke-opacity="0.03" stroke-width="2.0" stroke-linecap="round"/><path d="M1419 1042 Q1485 1131 1532 1240" fill="none" stroke="#ffffff" stroke-opacity="0.06" stroke-width="2.0" stroke-linecap="round"/><path d="M1381 1022 Q1440 1122 1472 1246" fill="none" stroke="#ffffff" stroke-opacity="0.04" stroke-width="1.0" stroke-linecap="round"/><path d="M1092 1017 Q1020 1106 976 1217" fill="none" stroke="#ffffff" stroke-opacity="0.06" stroke-width="1.8" stroke-linecap="round"/><path d="M1245 936 Q1250 1035 1256 1153" fill="none" stroke="#ffffff" stroke-opacity="0.06" stroke-width="1.1" stroke-linecap="round"/><path d="M1352 973 Q1376 1036 1378 1106" fill="none" stroke="#ffffff" stroke-opacity="0.07" stroke-width="2.2" stroke-linecap="round"/><path d="M1247 957 Q1246 1049 1245 1164" fill="none" stroke="#ffffff" stroke-opacity="0.06" stroke-width="1.1" stroke-linecap="round"/><path d="M1098 1005 Q1059 1071 1046 1137" fill="none" stroke="#ffffff" stroke-opacity="0.03" stroke-width="1.3" stroke-linecap="round"/><path d="M1324 987 Q1347 1046 1358 1122" fill="none" stroke="#ffffff" stroke-opacity="0.05" stroke-width="1.1" stroke-linecap="round"/><path d="M1419 1019 Q1495 1115 1555 1228" fill="none" stroke="#ffffff" stroke-opacity="0.07" stroke-width="2.2" stroke-linecap="round"/><path d="M1228 952 Q1212 1066 1198 1201" fill="none" stroke="#ffffff" stroke-opacity="0.04" stroke-width="1.6" stroke-linecap="round"/><path d="M1445 1046 Q1518 1105 1546 1190" fill="none" stroke="#ffffff" stroke-opacity="0.04" stroke-width="2.1" stroke-linecap="round"/><path d="M1244 937 Q1233 1018 1223 1110" fill="none" stroke="#ffffff" stroke-opacity="0.04" stroke-width="1.4" stroke-linecap="round"/><path d="M1171 997 Q1127 1098 1101 1203" fill="none" stroke="#ffffff" stroke-opacity="0.08" stroke-width="1.9" stroke-linecap="round"/><path d="M1423 1027 Q1479 1087 1492 1168" fill="none" stroke="#ffffff" stroke-opacity="0.05" stroke-width="1.5" stroke-linecap="round"/><path d="M1153 959 Q1107 1051 1073 1177" fill="none" stroke="#ffffff" stroke-opacity="0.04" stroke-width="1.3" stroke-linecap="round"/><path d="M1255 947 Q1254 1058 1251 1199" fill="none" stroke="#ffffff" stroke-opacity="0.06" stroke-width="2.1" stroke-linecap="round"/><path d="M1440 1062 Q1486 1095 1493 1144" fill="none" stroke="#ffffff" stroke-opacity="0.07" stroke-width="1.8" stroke-linecap="round"/><path d="M1158 957 Q1141 1006 1139 1067" fill="none" stroke="#ffffff" stroke-opacity="0.04" stroke-width="1.9" stroke-linecap="round"/><path d="M1455 1069 Q1513 1120 1535 1185" fill="none" stroke="#ffffff" stroke-opacity="0.04" stroke-width="1.2" stroke-linecap="round"/><path d="M1124 1023 Q1087 1065 1080 1142" fill="none" stroke="#ffffff" stroke-opacity="0.05" stroke-width="1.2" stroke-linecap="round"/><path d="M1118 982 Q1089 1025 1076 1079" fill="none" stroke="#ffffff" stroke-opacity="0.06" stroke-width="2.1" stroke-linecap="round"/><path d="M1357 985 Q1390 1065 1407 1157" fill="none" stroke="#ffffff" stroke-opacity="0.03" stroke-width="1.3" stroke-linecap="round"/><path d="M1451 1056 Q1527 1135 1557 1222" fill="none" stroke="#ffffff" stroke-opacity="0.04" stroke-width="1.3" stroke-linecap="round"/><path d="M1207 965 Q1199 1082 1201 1199" fill="none" stroke="#ffffff" stroke-opacity="0.03" stroke-width="1.9" stroke-linecap="round"/><path d="M1420 1035 Q1454 1058 1463 1114" fill="none" stroke="#ffffff" stroke-opacity="0.07" stroke-width="2.0" stroke-linecap="round"/><path d="M1453 1066 Q1498 1105 1508 1168" fill="none" stroke="#ffffff" stroke-opacity="0.08" stroke-width="1.9" stroke-linecap="round"/><path d="M1313 987 Q1332 1064 1344 1169" fill="none" stroke="#ffffff" stroke-opacity="0.04" stroke-width="2.1" stroke-linecap="round"/><path d="M1313 961 Q1325 1015 1326 1094" fill="none" stroke="#ffffff" stroke-opacity="0.04" stroke-width="1.1" stroke-linecap="round"/><path d="M1261 969 Q1262 1033 1261 1097" fill="none" stroke="#ffffff" stroke-opacity="0.05" stroke-width="1.6" stroke-linecap="round"/><path d="M1447 1079 Q1510 1143 1549 1216" fill="none" stroke="#ffffff" stroke-opacity="0.08" stroke-width="1.8" stroke-linecap="round"/><path d="M1167 952 Q1137 1047 1120 1151" fill="none" stroke="#ffffff" stroke-opacity="0.06" stroke-width="2.1" stroke-linecap="round"/><path d="M1133 969 Q1092 1041 1075 1120" fill="none" stroke="#ffffff" stroke-opacity="0.07" stroke-width="1.9" stroke-linecap="round"/><path d="M1252 948 Q1260 1014 1267 1090" fill="none" stroke="#ffffff" stroke-opacity="0.04" stroke-width="1.9" stroke-linecap="round"/><path d="M1162 1006 Q1141 1058 1132 1124" fill="none" stroke="#ffffff" stroke-opacity="0.06" stroke-width="2.1" stroke-linecap="round"/><path d="M1098 1014 Q1030 1126 978 1239" fill="none" stroke="#ffffff" stroke-opacity="0.03" stroke-width="1.5" stroke-linecap="round"/><path d="M1421 1059 Q1508 1165 1552 1283" fill="none" stroke="#ffffff" stroke-opacity="0.04" stroke-width="2.1" stroke-linecap="round"/><path d="M1356 963 Q1389 1030 1406 1109" fill="none" stroke="#ffffff" stroke-opacity="0.04" stroke-width="1.0" stroke-linecap="round"/><path d="M1155 976 Q1134 1026 1136 1085" fill="none" stroke="#ffffff" stroke-opacity="0.05" stroke-width="2.0" stroke-linecap="round"/><path d="M1388 1005 Q1423 1070 1438 1168" fill="none" stroke="#ffffff" stroke-opacity="0.04" stroke-width="1.4" stroke-linecap="round"/><path d="M1421 1011 Q1490 1112 1522 1215" fill="none" stroke="#ffffff" stroke-opacity="0.03" stroke-width="1.1" stroke-linecap="round"/><path d="M1431 1035 Q1508 1132 1559 1240" fill="none" stroke="#ffffff" stroke-opacity="0.08" stroke-width="1.7" stroke-linecap="round"/><path d="M1148 999 Q1121 1051 1104 1129" fill="none" stroke="#ffffff" stroke-opacity="0.08" stroke-width="1.8" stroke-linecap="round"/><path d="M1441 1034 Q1504 1093 1519 1186" fill="none" stroke="#ffffff" stroke-opacity="0.05" stroke-width="1.3" stroke-linecap="round"/><path d="M1220 966 Q1217 1013 1220 1087" fill="none" stroke="#ffffff" stroke-opacity="0.07" stroke-width="1.9" stroke-linecap="round"/><path d="M1296 959 Q1308 1033 1310 1110" fill="none" stroke="#ffffff" stroke-opacity="0.04" stroke-width="1.9" stroke-linecap="round"/><path d="M1141 966 Q1098 1033 1069 1135" fill="none" stroke="#ffffff" stroke-opacity="0.07" stroke-width="2.2" stroke-linecap="round"/><path d="M1149 963 Q1107 1037 1086 1126" fill="none" stroke="#ffffff" stroke-opacity="0.04" stroke-width="1.5" stroke-linecap="round"/><path d="M1302 979 Q1330 1092 1348 1209" fill="none" stroke="#ffffff" stroke-opacity="0.07" stroke-width="1.4" stroke-linecap="round"/><path d="M1279 959 Q1289 1016 1295 1081" fill="none" stroke="#ffffff" stroke-opacity="0.04" stroke-width="2.1" stroke-linecap="round"/><path d="M1284 957 Q1296 1082 1302 1215" fill="none" stroke="#ffffff" stroke-opacity="0.07" stroke-width="1.8" stroke-linecap="round"/><path d="M1461 1072 Q1549 1151 1588 1263" fill="none" stroke="#ffffff" stroke-opacity="0.03" stroke-width="1.4" stroke-linecap="round"/><path d="M1086 1013 Q1033 1094 1019 1190" fill="none" stroke="#ffffff" stroke-opacity="0.07" stroke-width="1.5" stroke-linecap="round"/><path d="M1147 1003 Q1127 1045 1126 1109" fill="none" stroke="#ffffff" stroke-opacity="0.04" stroke-width="1.4" stroke-linecap="round"/><path d="M1096 1005 Q1036 1086 1006 1175" fill="none" stroke="#ffffff" stroke-opacity="0.03" stroke-width="1.4" stroke-linecap="round"/><path d="M1327 959 Q1346 1011 1349 1082" fill="none" stroke="#ffffff" stroke-opacity="0.03" stroke-width="1.1" stroke-linecap="round"/><path d="M1205 971 Q1197 1011 1195 1076" fill="none" stroke="#ffffff" stroke-opacity="0.05" stroke-width="1.3" stroke-linecap="round"/><path d="M1167 1004 Q1136 1087 1117 1184" fill="none" stroke="#ffffff" stroke-opacity="0.07" stroke-width="2.2" stroke-linecap="round"/><path d="M1191 954 Q1182 1000 1177 1078" fill="none" stroke="#ffffff" stroke-opacity="0.05" stroke-width="2.0" stroke-linecap="round"/><path d="M1210 989 Q1201 1037 1195 1106" fill="none" stroke="#ffffff" stroke-opacity="0.06" stroke-width="2.1" stroke-linecap="round"/><path d="M1073 1050 Q1020 1121 985 1203" fill="none" stroke="#ffffff" stroke-opacity="0.06" stroke-width="2.1" stroke-linecap="round"/><path d="M1082 1034 Q1021 1148 981 1267" fill="none" stroke="#ffffff" stroke-opacity="0.08" stroke-width="2.2" stroke-linecap="round"/><path d="M1243 939 Q1247 1006 1253 1095" fill="none" stroke="#ffffff" stroke-opacity="0.07" stroke-width="1.2" stroke-linecap="round"/><path d="M1373 983 Q1424 1090 1448 1205" fill="none" stroke="#ffffff" stroke-opacity="0.04" stroke-width="1.5" stroke-linecap="round"/><path d="M1258 958 Q1255 1007 1250 1089" fill="none" stroke="#ffffff" stroke-opacity="0.03" stroke-width="1.7" stroke-linecap="round"/><path d="M1361 966 Q1392 1007 1402 1068" fill="none" stroke="#ffffff" stroke-opacity="0.06" stroke-width="1.4" stroke-linecap="round"/><path d="M1216 971 Q1202 1064 1193 1172" fill="none" stroke="#ffffff" stroke-opacity="0.03" stroke-width="1.7" stroke-linecap="round"/><path d="M1245 949 Q1250 1057 1255 1172" fill="none" stroke="#ffffff" stroke-opacity="0.05" stroke-width="1.1" stroke-linecap="round"/><path d="M1090 1022 Q1034 1093 1006 1165" fill="none" stroke="#ffffff" stroke-opacity="0.06" stroke-width="1.1" stroke-linecap="round"/><path d="M1350 1002 Q1373 1043 1378 1097" fill="none" stroke="#ffffff" stroke-opacity="0.08" stroke-width="1.2" stroke-linecap="round"/><path d="M1404 1049 Q1465 1132 1509 1251" fill="none" stroke="#ffffff" stroke-opacity="0.05" stroke-width="2.1" stroke-linecap="round"/><path d="M1429 1027 Q1504 1126 1561 1237" fill="none" stroke="#ffffff" stroke-opacity="0.07" stroke-width="1.2" stroke-linecap="round"/><path d="M1421 1024 Q1465 1057 1480 1122" fill="none" stroke="#ffffff" stroke-opacity="0.04" stroke-width="1.3" stroke-linecap="round"/><path d="M1253 954 Q1247 997 1242 1074" fill="none" stroke="#ffffff" stroke-opacity="0.06" stroke-width="2.1" stroke-linecap="round"/><path d="M1108 1028 Q1052 1101 1024 1188" fill="none" stroke="#ffffff" stroke-opacity="0.07" stroke-width="1.7" stroke-linecap="round"/><path d="M1284 988 Q1290 1110 1288 1247" fill="none" stroke="#ffffff" stroke-opacity="0.07" stroke-width="1.3" stroke-linecap="round"/><path d="M1461 1098 Q1537 1188 1578 1284" fill="none" stroke="#75685d" stroke-opacity="0.03" stroke-width="1.1" stroke-linecap="round"/><path d="M1388 994 Q1452 1100 1491 1230" fill="none" stroke="#ffffff" stroke-opacity="0.05" stroke-width="1.0" stroke-linecap="round"/><path d="M1050 1056 Q990 1110 966 1196" fill="none" stroke="#ffffff" stroke-opacity="0.04" stroke-width="1.3" stroke-linecap="round"/><path d="M1316 947 Q1325 1015 1328 1096" fill="none" stroke="#ffffff" stroke-opacity="0.04" stroke-width="1.7" stroke-linecap="round"/><path d="M1288 951 Q1302 1018 1311 1120" fill="none" stroke="#ffffff" stroke-opacity="0.04" stroke-width="1.2" stroke-linecap="round"/><path d="M1076 1048 Q1018 1146 987 1253" fill="none" stroke="#ffffff" stroke-opacity="0.03" stroke-width="1.8" stroke-linecap="round"/><path d="M1277 957 Q1289 1026 1294 1122" fill="none" stroke="#ffffff" stroke-opacity="0.04" stroke-width="2.1" stroke-linecap="round"/><path d="M1054 1070 Q1009 1111 983 1180" fill="none" stroke="#ffffff" stroke-opacity="0.03" stroke-width="1.7" stroke-linecap="round"/><path d="M1440 1039 Q1500 1114 1527 1212" fill="none" stroke="#ffffff" stroke-opacity="0.07" stroke-width="1.2" stroke-linecap="round"/><path d="M1168 968 Q1121 1069 1091 1196" fill="none" stroke="#ffffff" stroke-opacity="0.03" stroke-width="2.0" stroke-linecap="round"/><path d="M1355 987 Q1390 1064 1412 1144" fill="none" stroke="#ffffff" stroke-opacity="0.04" stroke-width="1.0" stroke-linecap="round"/><path d="M1179 989 Q1154 1099 1143 1220" fill="none" stroke="#ffffff" stroke-opacity="0.06" stroke-width="1.5" stroke-linecap="round"/><path d="M1374 1001 Q1419 1092 1433 1191" fill="none" stroke="#ffffff" stroke-opacity="0.07" stroke-width="1.0" stroke-linecap="round"/><path d="M1147 973 Q1106 1089 1088 1216" fill="none" stroke="#ffffff" stroke-opacity="0.07" stroke-width="1.4" stroke-linecap="round"/><path d="M1138 1015 Q1097 1097 1079 1214" fill="none" stroke="#ffffff" stroke-opacity="0.05" stroke-width="2.0" stroke-linecap="round"/><path d="M1335 1000 Q1367 1098 1383 1208" fill="none" stroke="#ffffff" stroke-opacity="0.04" stroke-width="1.7" stroke-linecap="round"/><path d="M1068 1072 Q1033 1095 1016 1151" fill="none" stroke="#ffffff" stroke-opacity="0.05" stroke-width="1.2" stroke-linecap="round"/><path d="M1047 1053 Q977 1125 948 1224" fill="none" stroke="#ffffff" stroke-opacity="0.03" stroke-width="1.7" stroke-linecap="round"/><path d="M1191 989 Q1177 1094 1168 1230" fill="none" stroke="#ffffff" stroke-opacity="0.08" stroke-width="2.1" stroke-linecap="round"/><path d="M1081 1019 Q1036 1045 1030 1100" fill="none" stroke="#ffffff" stroke-opacity="0.06" stroke-width="2.0" stroke-linecap="round"/><path d="M1307 959 Q1317 1008 1315 1065" fill="none" stroke="#ffffff" stroke-opacity="0.05" stroke-width="1.5" stroke-linecap="round"/><path d="M1044 1071 Q967 1151 920 1243" fill="none" stroke="#ffffff" stroke-opacity="0.08" stroke-width="1.6" stroke-linecap="round"/><path d="M1401 1025 Q1439 1087 1452 1177" fill="none" stroke="#ffffff" stroke-opacity="0.05" stroke-width="1.8" stroke-linecap="round"/><path d="M1266 949 Q1275 998 1279 1053" fill="none" stroke="#ffffff" stroke-opacity="0.03" stroke-width="1.2" stroke-linecap="round"/><path d="M1363 1019 Q1391 1090 1399 1189" fill="none" stroke="#ffffff" stroke-opacity="0.04" stroke-width="1.6" stroke-linecap="round"/><path d="M1184 992 Q1151 1110 1126 1236" fill="none" stroke="#ffffff" stroke-opacity="0.06" stroke-width="1.6" stroke-linecap="round"/><path d="M1082 1042 Q1006 1122 963 1231" fill="none" stroke="#ffffff" stroke-opacity="0.06" stroke-width="1.4" stroke-linecap="round"/><path d="M1208 962 Q1201 1014 1204 1067" fill="none" stroke="#ffffff" stroke-opacity="0.04" stroke-width="1.3" stroke-linecap="round"/><path d="M1423 1039 Q1487 1138 1529 1254" fill="none" stroke="#ffffff" stroke-opacity="0.06" stroke-width="1.9" stroke-linecap="round"/><path d="M1359 999 Q1385 1054 1398 1139" fill="none" stroke="#ffffff" stroke-opacity="0.06" stroke-width="1.9" stroke-linecap="round"/><path d="M1108 1008 Q1069 1089 1045 1186" fill="none" stroke="#ffffff" stroke-opacity="0.07" stroke-width="1.3" stroke-linecap="round"/><path d="M1117 994 Q1072 1101 1042 1214" fill="none" stroke="#ffffff" stroke-opacity="0.04" stroke-width="1.4" stroke-linecap="round"/><path d="M1260 945 Q1260 993 1258 1067" fill="none" stroke="#ffffff" stroke-opacity="0.04" stroke-width="2.2" stroke-linecap="round"/><path d="M1079 1031 Q1019 1128 995 1240" fill="none" stroke="#ffffff" stroke-opacity="0.04" stroke-width="1.8" stroke-linecap="round"/><path d="M1081 1019 Q1045 1047 1035 1103" fill="none" stroke="#ffffff" stroke-opacity="0.06" stroke-width="1.6" stroke-linecap="round"/><path d="M1307 969 Q1319 1052 1323 1161" fill="none" stroke="#ffffff" stroke-opacity="0.08" stroke-width="1.5" stroke-linecap="round"/><path d="M1282 980 Q1290 1029 1291 1109" fill="none" stroke="#ffffff" stroke-opacity="0.07" stroke-width="1.8" stroke-linecap="round"/><path d="M1402 1029 Q1449 1093 1475 1179" fill="none" stroke="#ffffff" stroke-opacity="0.03" stroke-width="1.5" stroke-linecap="round"/><path d="M1371 1010 Q1405 1063 1419 1133" fill="none" stroke="#ffffff" stroke-opacity="0.06" stroke-width="1.5" stroke-linecap="round"/><path d="M1325 1000 Q1348 1093 1355 1200" fill="none" stroke="#ffffff" stroke-opacity="0.05" stroke-width="2.2" stroke-linecap="round"/><path d="M1051 1075 Q962 1156 920 1255" fill="none" stroke="#ffffff" stroke-opacity="0.04" stroke-width="1.7" stroke-linecap="round"/><path d="M1268 977 Q1275 1067 1278 1175" fill="none" stroke="#ffffff" stroke-opacity="0.05" stroke-width="2.1" stroke-linecap="round"/><path d="M1125 1010 Q1079 1094 1045 1215" fill="none" stroke="#ffffff" stroke-opacity="0.05" stroke-width="1.1" stroke-linecap="round"/><path d="M1153 979 Q1116 1042 1094 1129" fill="none" stroke="#ffffff" stroke-opacity="0.05" stroke-width="1.3" stroke-linecap="round"/><path d="M1132 1009 Q1103 1082 1089 1184" fill="none" stroke="#ffffff" stroke-opacity="0.05" stroke-width="1.3" stroke-linecap="round"/><path d="M1091 1041 Q1041 1123 1017 1225" fill="none" stroke="#ffffff" stroke-opacity="0.04" stroke-width="2.2" stroke-linecap="round"/><path d="M1187 980 Q1169 1089 1162 1208" fill="none" stroke="#ffffff" stroke-opacity="0.06" stroke-width="1.2" stroke-linecap="round"/><path d="M1394 1005 Q1435 1060 1456 1125" fill="none" stroke="#ffffff" stroke-opacity="0.05" stroke-width="1.2" stroke-linecap="round"/><path d="M1036 1113 Q982 1156 957 1218" fill="none" stroke="#75685d" stroke-opacity="0.02" stroke-width="1.8" stroke-linecap="round"/><path d="M1318 966 Q1354 1065 1384 1192" fill="none" stroke="#ffffff" stroke-opacity="0.08" stroke-width="1.9" stroke-linecap="round"/><path d="M1095 1040 Q1070 1066 1059 1125" fill="none" stroke="#ffffff" stroke-opacity="0.06" stroke-width="1.3" stroke-linecap="round"/><path d="M1079 1018 Q1010 1110 965 1208" fill="none" stroke="#ffffff" stroke-opacity="0.08" stroke-width="2.0" stroke-linecap="round"/><path d="M1107 1034 Q1052 1121 1025 1241" fill="none" stroke="#ffffff" stroke-opacity="0.07" stroke-width="2.0" stroke-linecap="round"/><path d="M1120 1014 Q1072 1099 1044 1216" fill="none" stroke="#ffffff" stroke-opacity="0.06" stroke-width="1.3" stroke-linecap="round"/><path d="M1136 973 Q1110 1018 1104 1068" fill="none" stroke="#ffffff" stroke-opacity="0.05" stroke-width="1.6" stroke-linecap="round"/><path d="M1267 985 Q1262 1091 1254 1218" fill="none" stroke="#ffffff" stroke-opacity="0.06" stroke-width="2.0" stroke-linecap="round"/><path d="M1196 966 Q1188 1006 1191 1068" fill="none" stroke="#ffffff" stroke-opacity="0.03" stroke-width="1.7" stroke-linecap="round"/><path d="M1329 1002 Q1359 1119 1376 1254" fill="none" stroke="#ffffff" stroke-opacity="0.07" stroke-width="1.0" stroke-linecap="round"/><path d="M1344 990 Q1378 1097 1398 1221" fill="none" stroke="#ffffff" stroke-opacity="0.06" stroke-width="1.9" stroke-linecap="round"/><path d="M1126 996 Q1079 1077 1060 1168" fill="none" stroke="#ffffff" stroke-opacity="0.07" stroke-width="1.5" stroke-linecap="round"/><path d="M1252 951 Q1253 1065 1253 1207" fill="none" stroke="#ffffff" stroke-opacity="0.05" stroke-width="1.4" stroke-linecap="round"/><path d="M1164 985 Q1136 1081 1116 1203" fill="none" stroke="#ffffff" stroke-opacity="0.07" stroke-width="1.7" stroke-linecap="round"/><path d="M1056 1054 Q996 1092 983 1151" fill="none" stroke="#ffffff" stroke-opacity="0.06" stroke-width="1.9" stroke-linecap="round"/><path d="M1426 1049 Q1493 1124 1524 1220" fill="none" stroke="#ffffff" stroke-opacity="0.06" stroke-width="1.3" stroke-linecap="round"/><path d="M1322 973 Q1340 1024 1349 1077" fill="none" stroke="#ffffff" stroke-opacity="0.07" stroke-width="2.1" stroke-linecap="round"/><path d="M1317 966 Q1351 1070 1374 1183" fill="none" stroke="#ffffff" stroke-opacity="0.05" stroke-width="1.5" stroke-linecap="round"/><path d="M1172 973 Q1145 1085 1125 1218" fill="none" stroke="#ffffff" stroke-opacity="0.03" stroke-width="1.1" stroke-linecap="round"/><path d="M1383 1010 Q1426 1077 1457 1158" fill="none" stroke="#ffffff" stroke-opacity="0.06" stroke-width="2.1" stroke-linecap="round"/><path d="M1457 1085 Q1505 1126 1514 1176" fill="none" stroke="#75685d" stroke-opacity="0.02" stroke-width="1.0" stroke-linecap="round"/><path d="M1037 1109 Q947 1192 878 1307" fill="none" stroke="#75685d" stroke-opacity="0.02" stroke-width="1.0" stroke-linecap="round"/><path d="M1344 969 Q1368 1013 1382 1085" fill="none" stroke="#ffffff" stroke-opacity="0.07" stroke-width="2.0" stroke-linecap="round"/><path d="M1349 962 Q1388 1046 1412 1163" fill="none" stroke="#ffffff" stroke-opacity="0.04" stroke-width="2.2" stroke-linecap="round"/><path d="M1343 956 Q1370 1053 1376 1154" fill="none" stroke="#ffffff" stroke-opacity="0.05" stroke-width="1.9" stroke-linecap="round"/><path d="M1106 1033 Q1076 1069 1067 1125" fill="none" stroke="#ffffff" stroke-opacity="0.05" stroke-width="1.8" stroke-linecap="round"/><path d="M1097 1037 Q1039 1119 1009 1216" fill="none" stroke="#ffffff" stroke-opacity="0.05" stroke-width="1.9" stroke-linecap="round"/><path d="M1441 1078 Q1487 1120 1515 1197" fill="none" stroke="#ffffff" stroke-opacity="0.07" stroke-width="2.0" stroke-linecap="round"/><path d="M1178 981 Q1159 1091 1154 1211" fill="none" stroke="#ffffff" stroke-opacity="0.05" stroke-width="2.1" stroke-linecap="round"/><path d="M1197 980 Q1176 1095 1166 1221" fill="none" stroke="#ffffff" stroke-opacity="0.03" stroke-width="1.3" stroke-linecap="round"/><path d="M1217 971 Q1212 1077 1210 1212" fill="none" stroke="#ffffff" stroke-opacity="0.07" stroke-width="2.0" stroke-linecap="round"/><path d="M1281 953 Q1302 1049 1317 1178" fill="none" stroke="#ffffff" stroke-opacity="0.05" stroke-width="1.1" stroke-linecap="round"/><path d="M1273 982 Q1276 1086 1274 1199" fill="none" stroke="#ffffff" stroke-opacity="0.06" stroke-width="1.8" stroke-linecap="round"/><path d="M1235 948 Q1223 1048 1215 1165" fill="none" stroke="#ffffff" stroke-opacity="0.03" stroke-width="2.0" stroke-linecap="round"/><path d="M1367 980 Q1422 1085 1449 1208" fill="none" stroke="#ffffff" stroke-opacity="0.05" stroke-width="1.7" stroke-linecap="round"/><path d="M1116 988 Q1062 1073 1027 1177" fill="none" stroke="#ffffff" stroke-opacity="0.05" stroke-width="1.6" stroke-linecap="round"/><path d="M1099 993 Q1067 1055 1051 1139" fill="none" stroke="#ffffff" stroke-opacity="0.07" stroke-width="1.2" stroke-linecap="round"/><path d="M1292 959 Q1299 988 1303 1052" fill="none" stroke="#ffffff" stroke-opacity="0.07" stroke-width="1.6" stroke-linecap="round"/><path d="M1279 952 Q1294 1019 1301 1113" fill="none" stroke="#ffffff" stroke-opacity="0.07" stroke-width="2.2" stroke-linecap="round"/><path d="M1144 963 Q1118 1019 1102 1076" fill="none" stroke="#ffffff" stroke-opacity="0.06" stroke-width="2.0" stroke-linecap="round"/><path d="M1232 990 Q1232 1033 1236 1091" fill="none" stroke="#ffffff" stroke-opacity="0.04" stroke-width="2.2" stroke-linecap="round"/><path d="M1146 992 Q1102 1107 1080 1236" fill="none" stroke="#ffffff" stroke-opacity="0.05" stroke-width="1.2" stroke-linecap="round"/><path d="M1450 1103 Q1486 1139 1497 1187" fill="none" stroke="#75685d" stroke-opacity="0.03" stroke-width="2.1" stroke-linecap="round"/><path d="M1395 988 Q1457 1065 1490 1176" fill="none" stroke="#ffffff" stroke-opacity="0.03" stroke-width="1.2" stroke-linecap="round"/><path d="M1360 1016 Q1394 1068 1407 1148" fill="none" stroke="#ffffff" stroke-opacity="0.04" stroke-width="1.4" stroke-linecap="round"/><path d="M1146 967 Q1122 1021 1111 1081" fill="none" stroke="#ffffff" stroke-opacity="0.06" stroke-width="1.0" stroke-linecap="round"/><path d="M1343 966 Q1369 1072 1384 1211" fill="none" stroke="#ffffff" stroke-opacity="0.07" stroke-width="2.1" stroke-linecap="round"/><path d="M1095 1019 Q1016 1115 972 1234" fill="none" stroke="#ffffff" stroke-opacity="0.05" stroke-width="1.4" stroke-linecap="round"/><path d="M1389 1008 Q1421 1059 1435 1112" fill="none" stroke="#ffffff" stroke-opacity="0.07" stroke-width="1.7" stroke-linecap="round"/><path d="M1097 1041 Q1052 1107 1024 1183" fill="none" stroke="#ffffff" stroke-opacity="0.07" stroke-width="1.4" stroke-linecap="round"/><path d="M1107 1012 Q1048 1104 1004 1232" fill="none" stroke="#ffffff" stroke-opacity="0.03" stroke-width="2.1" stroke-linecap="round"/><path d="M1322 959 Q1341 1024 1350 1095" fill="none" stroke="#ffffff" stroke-opacity="0.05" stroke-width="2.2" stroke-linecap="round"/><path d="M1464 1125 Q1524 1184 1533 1246" fill="none" stroke="#75685d" stroke-opacity="0.03" stroke-width="1.4" stroke-linecap="round"/><path d="M1456 1057 Q1511 1117 1544 1176" fill="none" stroke="#ffffff" stroke-opacity="0.07" stroke-width="1.6" stroke-linecap="round"/><path d="M1115 1003 Q1084 1061 1078 1125" fill="none" stroke="#ffffff" stroke-opacity="0.04" stroke-width="1.9" stroke-linecap="round"/><path d="M1341 965 Q1358 1008 1358 1069" fill="none" stroke="#ffffff" stroke-opacity="0.04" stroke-width="1.2" stroke-linecap="round"/><path d="M1298 981 Q1320 1072 1336 1166" fill="none" stroke="#ffffff" stroke-opacity="0.07" stroke-width="1.5" stroke-linecap="round"/><path d="M1345 959 Q1380 1013 1393 1098" fill="none" stroke="#ffffff" stroke-opacity="0.05" stroke-width="1.0" stroke-linecap="round"/><path d="M1426 1042 Q1473 1084 1500 1156" fill="none" stroke="#ffffff" stroke-opacity="0.05" stroke-width="1.2" stroke-linecap="round"/><path d="M1195 976 Q1167 1053 1149 1148" fill="none" stroke="#ffffff" stroke-opacity="0.04" stroke-width="1.9" stroke-linecap="round"/><path d="M1386 1028 Q1432 1113 1457 1226" fill="none" stroke="#ffffff" stroke-opacity="0.03" stroke-width="2.0" stroke-linecap="round"/><path d="M1445 1067 Q1510 1143 1540 1221" fill="none" stroke="#ffffff" stroke-opacity="0.08" stroke-width="1.3" stroke-linecap="round"/><path d="M1113 985 Q1059 1087 1017 1193" fill="none" stroke="#ffffff" stroke-opacity="0.06" stroke-width="1.2" stroke-linecap="round"/><path d="M1043 1093 Q973 1167 947 1244" fill="none" stroke="#75685d" stroke-opacity="0.03" stroke-width="1.9" stroke-linecap="round"/><path d="M1054 1047 Q996 1119 963 1196" fill="none" stroke="#ffffff" stroke-opacity="0.05" stroke-width="1.2" stroke-linecap="round"/><path d="M1289 988 Q1297 1078 1296 1175" fill="none" stroke="#ffffff" stroke-opacity="0.07" stroke-width="2.1" stroke-linecap="round"/><path d="M1202 964 Q1193 1037 1191 1143" fill="none" stroke="#ffffff" stroke-opacity="0.07" stroke-width="1.4" stroke-linecap="round"/><path d="M1138 983 Q1085 1088 1056 1226" fill="none" stroke="#ffffff" stroke-opacity="0.07" stroke-width="2.0" stroke-linecap="round"/><path d="M1058 1064 Q992 1168 951 1288" fill="none" stroke="#ffffff" stroke-opacity="0.06" stroke-width="1.4" stroke-linecap="round"/><path d="M1263 940 Q1266 1026 1267 1116" fill="none" stroke="#ffffff" stroke-opacity="0.08" stroke-width="1.9" stroke-linecap="round"/><path d="M1438 1065 Q1527 1164 1572 1264" fill="none" stroke="#ffffff" stroke-opacity="0.06" stroke-width="1.3" stroke-linecap="round"/><path d="M1327 964 Q1362 1080 1382 1205" fill="none" stroke="#ffffff" stroke-opacity="0.06" stroke-width="1.5" stroke-linecap="round"/><path d="M1444 1054 Q1502 1130 1541 1229" fill="none" stroke="#ffffff" stroke-opacity="0.08" stroke-width="1.6" stroke-linecap="round"/><path d="M1150 984 Q1130 1037 1119 1095" fill="none" stroke="#ffffff" stroke-opacity="0.04" stroke-width="1.5" stroke-linecap="round"/><path d="M1159 968 Q1118 1043 1098 1140" fill="none" stroke="#ffffff" stroke-opacity="0.06" stroke-width="1.8" stroke-linecap="round"/><path d="M1122 1014 Q1076 1091 1055 1185" fill="none" stroke="#ffffff" stroke-opacity="0.05" stroke-width="1.3" stroke-linecap="round"/><path d="M1130 997 Q1092 1080 1063 1175" fill="none" stroke="#ffffff" stroke-opacity="0.07" stroke-width="1.3" stroke-linecap="round"/><path d="M1274 965 Q1279 1080 1280 1223" fill="none" stroke="#ffffff" stroke-opacity="0.04" stroke-width="1.1" stroke-linecap="round"/><path d="M1410 1023 Q1450 1083 1464 1169" fill="none" stroke="#ffffff" stroke-opacity="0.04" stroke-width="1.3" stroke-linecap="round"/><path d="M1448 1084 Q1496 1137 1516 1215" fill="none" stroke="#75685d" stroke-opacity="0.03" stroke-width="2.0" stroke-linecap="round"/><path d="M1388 1010 Q1449 1099 1480 1206" fill="none" stroke="#ffffff" stroke-opacity="0.07" stroke-width="1.9" stroke-linecap="round"/><path d="M1428 1025 Q1472 1052 1478 1100" fill="none" stroke="#ffffff" stroke-opacity="0.05" stroke-width="2.2" stroke-linecap="round"/><path d="M1281 961 Q1301 1073 1316 1197" fill="none" stroke="#ffffff" stroke-opacity="0.05" stroke-width="1.5" stroke-linecap="round"/><path d="M1346 973 Q1376 1056 1391 1152" fill="none" stroke="#ffffff" stroke-opacity="0.07" stroke-width="2.0" stroke-linecap="round"/><path d="M1250 961 Q1245 1021 1240 1102" fill="none" stroke="#ffffff" stroke-opacity="0.06" stroke-width="1.1" stroke-linecap="round"/><path d="M1431 1038 Q1517 1132 1558 1233" fill="none" stroke="#ffffff" stroke-opacity="0.05" stroke-width="2.1" stroke-linecap="round"/><path d="M1040 1068 Q967 1127 944 1214" fill="none" stroke="#ffffff" stroke-opacity="0.06" stroke-width="2.2" stroke-linecap="round"/><path d="M1258 965 Q1263 1032 1267 1121" fill="none" stroke="#ffffff" stroke-opacity="0.05" stroke-width="2.1" stroke-linecap="round"/><path d="M1326 978 Q1342 1044 1346 1130" fill="none" stroke="#ffffff" stroke-opacity="0.06" stroke-width="2.1" stroke-linecap="round"/><path d="M1450 1074 Q1526 1151 1552 1241" fill="none" stroke="#ffffff" stroke-opacity="0.06" stroke-width="2.0" stroke-linecap="round"/><path d="M1108 1001 Q1062 1109 1041 1221" fill="none" stroke="#ffffff" stroke-opacity="0.07" stroke-width="1.8" stroke-linecap="round"/></g>
<g clip-path="url(#clip-hair)" mask="url(#maskHair)"><use href="#hair" fill="none" stroke="#ffffff" stroke-width="26" stroke-opacity="0.85" filter="url(#blur8)"/></g>
<use href="#hair" fill="none" stroke="#ffffff" stroke-opacity="0.6" stroke-width="2" mask="url(#maskHair)"/>
<path d="M1027.2 1109.5 Q1020.7 1104.7 1007.6 1103.9" fill="none" stroke="#ffffff" stroke-opacity="0.40" stroke-width="1.4" stroke-linecap="round"/><path d="M1037.9 1071.1 Q1028.5 1061.3 1024.3 1064.0" fill="none" stroke="#ffffff" stroke-opacity="0.41" stroke-width="1.4" stroke-linecap="round"/><path d="M1064.5 1033.7 Q1052.4 1034.5 1049.7 1023.1" fill="none" stroke="#ffffff" stroke-opacity="0.57" stroke-width="1.4" stroke-linecap="round"/><path d="M1088.0 1004.0 Q1086.1 993.1 1079.2 992.6" fill="none" stroke="#ffffff" stroke-opacity="0.59" stroke-width="1.4" stroke-linecap="round"/><path d="M1117.9 979.9 Q1118.2 972.7 1111.0 967.6" fill="none" stroke="#ffffff" stroke-opacity="0.58" stroke-width="1.4" stroke-linecap="round"/><path d="M1154.0 962.5 Q1150.6 948.3 1148.1 947.1" fill="none" stroke="#ffffff" stroke-opacity="0.58" stroke-width="1.4" stroke-linecap="round"/><path d="M1189.6 946.2 Q1187.7 931.3 1185.0 925.0" fill="none" stroke="#ffffff" stroke-opacity="0.39" stroke-width="1.4" stroke-linecap="round"/><path d="M1227.4 934.8 Q1220.1 915.7 1226.0 915.3" fill="none" stroke="#ffffff" stroke-opacity="0.41" stroke-width="1.4" stroke-linecap="round"/><path d="M1271.2 934.5 Q1274.1 926.3 1272.8 914.3" fill="none" stroke="#ffffff" stroke-opacity="0.37" stroke-width="1.4" stroke-linecap="round"/><path d="M1306.1 944.9 Q1305.5 935.9 1309.0 925.8" fill="none" stroke="#ffffff" stroke-opacity="0.47" stroke-width="1.4" stroke-linecap="round"/><path d="M1343.9 955.3 Q1341.4 952.3 1349.4 941.9" fill="none" stroke="#ffffff" stroke-opacity="0.55" stroke-width="1.4" stroke-linecap="round"/><path d="M1379.0 976.4 Q1383.2 960.0 1387.7 962.8" fill="none" stroke="#ffffff" stroke-opacity="0.66" stroke-width="1.4" stroke-linecap="round"/><path d="M1413.3 1003.6 Q1420.7 995.7 1425.8 988.2" fill="none" stroke="#ffffff" stroke-opacity="0.44" stroke-width="1.4" stroke-linecap="round"/><path d="M1441.3 1033.4 Q1454.5 1022.6 1451.5 1021.1" fill="none" stroke="#ffffff" stroke-opacity="0.66" stroke-width="1.4" stroke-linecap="round"/><path d="M1456.9 1072.3 Q1470.4 1075.3 1475.2 1066.0" fill="none" stroke="#ffffff" stroke-opacity="0.52" stroke-width="1.4" stroke-linecap="round"/>
<use href="#chair" fill="url(#chairShade)"/>
<g clip-path="url(#clip-chair)" mask="url(#maskChair)"><use href="#chair" fill="none" stroke="#ffffff" stroke-width="12" stroke-opacity="0.35" filter="url(#blur3)"/></g>
<path d="M896 1800 L892 2250" stroke="#ffffff" stroke-opacity="0.025" stroke-width="2"/><path d="M938 1800 L935 2250" stroke="#ffffff" stroke-opacity="0.025" stroke-width="2"/><path d="M980 1800 L978 2250" stroke="#ffffff" stroke-opacity="0.025" stroke-width="2"/><path d="M1022 1800 L1021 2250" stroke="#ffffff" stroke-opacity="0.025" stroke-width="2"/><path d="M1064 1800 L1064 2250" stroke="#ffffff" stroke-opacity="0.025" stroke-width="2"/><path d="M1106 1800 L1107 2250" stroke="#ffffff" stroke-opacity="0.025" stroke-width="2"/><path d="M1148 1800 L1150 2250" stroke="#ffffff" stroke-opacity="0.025" stroke-width="2"/><path d="M1190 1800 L1193 2250" stroke="#ffffff" stroke-opacity="0.025" stroke-width="2"/><path d="M1232 1800 L1236 2250" stroke="#ffffff" stroke-opacity="0.025" stroke-width="2"/><path d="M1274 1800 L1279 2250" stroke="#ffffff" stroke-opacity="0.025" stroke-width="2"/><path d="M1316 1800 L1322 2250" stroke="#ffffff" stroke-opacity="0.025" stroke-width="2"/><path d="M1358 1800 L1365 2250" stroke="#ffffff" stroke-opacity="0.025" stroke-width="2"/><path d="M1400 1800 L1408 2250" stroke="#ffffff" stroke-opacity="0.025" stroke-width="2"/><path d="M1442 1800 L1451 2250" stroke="#ffffff" stroke-opacity="0.025" stroke-width="2"/><path d="M1484 1800 L1494 2250" stroke="#ffffff" stroke-opacity="0.025" stroke-width="2"/><path d="M1526 1800 L1537 2250" stroke="#ffffff" stroke-opacity="0.025" stroke-width="2"/><path d="M1568 1800 L1580 2250" stroke="#ffffff" stroke-opacity="0.025" stroke-width="2"/><path d="M1610 1800 L1623 2250" stroke="#ffffff" stroke-opacity="0.025" stroke-width="2"/>
<rect x="0" y="1990" width="3600" height="260" fill="url(#fadeBottom)"/>
</svg>
